<svg width="48" height="64" viewBox="0 0 48 64" fill="none" xmlns="http://www.w3.org/2000/svg">
<path d="M48 24.4286C48 34.9475 37.97 47.9516 29.9955 57.2C26.8521 60.8455 21.1479 60.8455 18.0045 57.2C10.03 47.9516 0 34.9475 0 24.4286C0 10.937 10.7452 0 24 0C37.2548 0 48 10.937 48 24.4286Z" fill="#12151C"/>
<circle cx="24" cy="24" r="20" fill="white"/>
<path fill-rule="evenodd" clip-rule="evenodd" d="M25.426 13.6193L23.7991 15.2385L15 15.2827V27.7728L25.2531 17.7125H28.5106L15 31.1495V32.8455L20.5311 32.8906L19.8336 33.5927L19.1359 34.2949L19.9408 35.1474L20.7458 36L22.3138 34.4448L23.8817 32.8897L32.75 32.8455V20.3555L22.5101 30.4157H19.2516L32.75 16.9808V15.2827L27.2318 15.2376L27.9994 14.4709L28.767 13.7042L27.91 12.8521L27.0529 12L25.426 13.6193ZM21.695 17.7345C20.307 19.1458 18.8975 20.5361 17.4933 21.9314V17.7125L21.695 17.7345ZM30.2699 28.3269V30.4157H28.1483H26.0266L28.1262 28.3269C29.2809 27.1781 30.2357 26.2381 30.2478 26.2381C30.2599 26.2381 30.2699 27.1781 30.2699 28.3269Z" fill="#FC342F"/>
</svg>
