<svg width="40" height="40" viewBox="0 0 40 40" fill="none" xmlns="http://www.w3.org/2000/svg">
<mask id="mask0_327_3782" style="mask-type:alpha" maskUnits="userSpaceOnUse" x="0" y="0" width="40" height="40">
<rect y="-1.52588e-05" width="40" height="40" fill="white"/>
</mask>
<g mask="url(#mask0_327_3782)">
<path fill-rule="evenodd" clip-rule="evenodd" d="M5.4681 0.705434C3.72807 1.0907 2.207 1.44605 2.08803 1.49526C1.72019 1.64712 1.4842 1.99848 1.4842 2.39414C1.4842 2.65575 2.68921 8.43147 3.01261 9.7203C3.05792 9.90059 3.04636 9.90512 2.53712 9.90809C1.12221 9.91622 0 10.8253 0 11.9633C0 12.5941 0.149592 12.9647 0.584228 13.411C1.15885 14.001 1.81767 14.1727 2.74975 13.9751C3.85071 13.7417 4.68124 12.8922 4.68765 11.9928C4.6889 11.8209 4.35136 10.1228 3.93766 8.21931C3.52396 6.31578 3.2036 4.74019 3.22579 4.71801C3.30586 4.63794 9.25796 3.3716 9.30694 3.42417C9.3346 3.45386 9.57379 4.47999 9.83852 5.70445C10.1033 6.92891 10.338 8.00465 10.3602 8.09495C10.3981 8.24907 10.362 8.2618 9.77431 8.30211C8.37494 8.39804 7.34936 9.26582 7.3446 10.358C7.34077 11.2408 7.86735 12.0327 8.63148 12.293C9.46482 12.577 10.5524 12.3934 11.2674 11.8481C11.703 11.5159 12.0298 10.8857 12.0298 10.3783C12.0298 10.0438 10.2028 1.39184 9.99397 0.737462C9.95171 0.604899 9.81321 0.396955 9.68627 0.275329C9.28757 -0.106657 9.00651 -0.0779884 5.4681 0.705434ZM35.6765 0.21682C35.5226 0.335009 35.2696 0.533814 35.1143 0.658643L34.832 0.885569L34.5429 0.604665C34.1895 0.261346 33.9279 0.154015 33.675 0.248379C33.1794 0.433357 33.1495 0.882366 33.6002 1.37129L33.9231 1.72156L33.5466 2.05309C32.7871 2.72191 32.8896 2.70582 32.4194 2.22963C31.9484 1.75281 31.7316 1.66751 31.4114 1.83319C30.9387 2.07762 30.9708 2.46577 31.5108 3.03477L31.9315 3.47815L31.537 3.82967C30.8313 4.45835 30.895 4.44819 30.4383 4.00372C29.9615 3.53986 29.7731 3.46714 29.463 3.62743C28.9946 3.86967 29.0173 4.25908 29.5315 4.80284L29.9259 5.21974L29.4958 5.62649C29.0649 6.03402 28.8531 6.44007 28.9356 6.70019C28.9689 6.8051 28.2915 7.5272 26.1735 9.64461L23.3671 12.4501L22.4441 11.9769C20.9324 11.202 19.9237 10.9243 18.5915 10.9161C17.677 10.9105 17.1079 11.0103 16.3845 11.3032C15.3495 11.7223 14.4622 12.4741 13.6231 13.6432C13.1898 14.247 13.1319 14.5 13.3605 14.7907C13.5059 14.9755 13.5801 15.0048 13.8515 14.9848C14.1282 14.9644 14.2063 14.9138 14.4314 14.6096C15.8721 12.6626 16.9663 12.0343 18.7477 12.1313C19.7962 12.1884 21.4194 12.7087 22.2539 13.2552C22.44 13.377 22.4368 13.3806 19.325 16.4931L16.2097 19.6091L15.8188 19.6104C14.1686 19.6162 12.5062 20.6871 11.8003 22.1994C11.1584 23.5744 11.188 24.9371 11.8888 26.2734C12.2588 26.9788 13.1021 27.7961 13.8265 28.1511C14.8246 28.6402 15.7413 28.7659 16.7558 28.553C18.8075 28.1222 20.3788 26.2121 20.3869 24.1394L20.3882 23.7875L23.5017 20.6748L26.6151 17.562L26.8036 17.902C27.3956 18.97 27.7226 20.0495 27.7877 21.1499C27.841 22.052 27.7255 22.6731 27.3623 23.4367C26.984 24.2321 26.1138 25.093 24.997 25.7765C23.9526 26.4158 23.2923 26.9405 22.6206 27.6649C21.3883 28.9937 20.7076 30.323 20.2265 32.3404C19.8992 33.7126 19.5917 34.4789 18.9833 35.4382C18.6966 35.8903 18.6783 36.2333 18.9285 36.4685C19.3888 36.9007 19.7999 36.5816 20.4766 35.2667C20.9634 34.3207 21.148 33.801 21.4375 32.5612C21.7993 31.0128 22.359 29.8499 23.2529 28.7897C23.8704 28.0572 24.5625 27.4896 25.7571 26.7359C27.7341 25.4883 28.7134 24.1341 28.9849 22.272C29.2084 20.7392 28.7454 18.7613 27.7855 17.1484L27.5066 16.6797L29.4546 14.7233C31.4499 12.7194 31.5109 12.6393 31.354 12.2306C31.2978 12.0843 30.9277 11.8756 30.7242 11.8756C30.6442 11.8756 28.343 14.1167 25.3064 17.1521L20.0278 22.4286L19.8372 22.0148C19.5811 21.4588 18.5383 20.4161 17.9821 20.1598L17.5679 19.9691L23.6449 13.8917L29.7219 7.81428L30.9477 9.03827C32.1039 10.1927 32.1672 10.2713 32.0614 10.4223C31.8957 10.659 31.9248 10.9208 32.1411 11.137C32.3763 11.3723 32.7143 11.3864 32.9864 11.1723C33.0958 11.0863 33.2397 11.0368 33.3062 11.0623C33.5406 11.1522 33.9685 10.9268 34.3708 10.5015L34.7775 10.0714L35.1944 10.4658C35.7382 10.98 36.1276 11.0026 36.3698 10.5343C36.5301 10.2241 36.4574 10.0357 35.9935 9.55899C35.5491 9.10225 35.5389 9.16599 36.1676 8.4603L36.5191 8.06573L36.9625 8.48646C37.2876 8.79494 37.4647 8.90657 37.6265 8.9047C37.8998 8.90165 38.0902 8.76268 38.1936 8.49076C38.303 8.20283 38.2059 8.00027 37.7412 7.54728C37.2964 7.11366 37.2867 7.17576 37.9064 6.48865L38.2782 6.07652L38.6272 6.3982C39.115 6.84783 39.5613 6.81791 39.7479 6.32305C39.8437 6.0687 39.7372 5.80795 39.3931 5.45432L39.1117 5.16522L39.3386 4.88291C39.9531 4.11878 39.9953 4.04355 39.9953 3.71258C39.9953 3.47276 39.9343 3.30239 39.769 3.07976C39.5052 2.72441 37.079 0.318215 36.7946 0.129878C36.4892 -0.0723641 36.0043 -0.0347123 35.6765 0.21682ZM8.96605 1.69563C9.01721 1.93974 9.05088 2.1462 9.04072 2.15432C9.03065 2.16253 7.65144 2.46726 5.97585 2.83151L2.92934 3.49378L2.8224 3.07218C2.76358 2.84026 2.73733 2.62857 2.7642 2.60177C2.81256 2.55342 8.52118 1.27357 8.7524 1.25927C8.83786 1.25404 8.90004 1.38106 8.96605 1.69563ZM37.4899 2.53514L38.6931 3.74023L37.9142 4.62473C37.4859 5.11116 36.3149 6.44069 35.3123 7.57923C34.3096 8.71776 33.4676 9.6582 33.4413 9.66898C33.4149 9.67984 32.6906 8.98508 31.8316 8.12518L30.2698 6.56154L30.6214 6.25962C30.8147 6.09354 32.1505 4.91751 33.5898 3.64634C35.029 2.37508 36.2246 1.33388 36.2466 1.33247C36.2687 1.33106 36.8281 1.87225 37.4899 2.53514ZM35.3579 2.42929C35.0138 2.69989 35.0872 3.23029 35.4924 3.40066C36.1111 3.66079 36.6057 2.93275 36.132 2.45913C35.8978 2.22479 35.6309 2.21447 35.3579 2.42929ZM36.7292 3.83272C36.3467 4.18901 36.6068 4.84518 37.1304 4.84518C37.6476 4.84518 37.8962 4.29649 37.568 3.87928C37.3661 3.62259 36.9778 3.60103 36.7292 3.83272ZM33.771 4.07003C33.5573 4.14909 33.3554 4.44101 33.3554 4.67082C33.3554 5.08796 33.973 5.38472 34.3093 5.12928C34.8573 4.71285 34.4104 3.8335 33.771 4.07003ZM35.1592 5.47784C34.7337 5.64633 34.6316 6.12846 34.9533 6.45007C35.2662 6.76307 35.7824 6.65035 35.9263 6.23759C36.0994 5.74109 35.6409 5.28708 35.1592 5.47784ZM31.8427 5.9445C31.6853 6.06824 31.6369 6.17572 31.6369 6.40109C31.6369 6.83877 31.9967 7.0996 32.3928 6.94907C32.8358 6.78065 32.9455 6.30305 32.6168 5.97434C32.3826 5.73999 32.1157 5.72968 31.8427 5.9445ZM33.2608 7.29512C32.8938 7.57407 32.9863 8.22321 33.4091 8.33484C33.6985 8.41116 33.8271 8.38038 34.0389 8.18377C34.5406 7.71827 33.8068 6.88033 33.2608 7.29512ZM10.5447 9.67187C10.7499 9.8381 10.8456 10.4353 10.7081 10.6921C10.4888 11.102 9.41865 11.3483 8.94909 11.097C8.5693 10.8938 8.46532 10.2259 8.76904 9.94051C9.19844 9.53712 10.1925 9.38675 10.5447 9.67187ZM27.8805 10.0228C27.6871 10.1713 27.5574 10.4675 27.6045 10.6525C27.6281 10.7452 27.9979 11.1697 28.4263 11.5957C29.0894 12.2552 29.2426 12.3703 29.4569 12.3703C29.6341 12.3703 29.7629 12.3073 29.8916 12.1577C30.2251 11.77 30.1128 11.5357 29.1474 10.605C28.4153 9.89934 28.1814 9.79186 27.8805 10.0228ZM3.25875 11.3645C3.47263 11.6132 3.49646 12.0685 3.30953 12.3354C3.12502 12.5989 2.60336 12.8093 2.1299 12.8113C1.79088 12.8127 1.6791 12.7756 1.47584 12.5939C1.27938 12.4183 1.22892 12.3098 1.22204 12.0479C1.21134 11.6384 1.39015 11.4438 1.9643 11.2398C2.5297 11.039 3.01925 11.0861 3.25875 11.3645ZM26.2078 11.7356C25.9713 11.8712 25.8615 12.047 25.8588 12.2944C25.8568 12.4742 26.0057 12.6685 26.6179 13.2857C27.0651 13.7363 27.4685 14.0749 27.5949 14.1057C28.0078 14.2063 28.4357 13.7308 28.2838 13.3403C28.1806 13.0753 26.6825 11.6409 26.5117 11.6436C26.4305 11.6449 26.2938 11.6863 26.2078 11.7356ZM24.5354 13.4456C24.2791 13.5472 24.1432 13.7445 24.1403 14.0197C24.1382 14.2091 24.2806 14.3928 24.9425 15.0547C25.8153 15.9275 25.9711 15.9985 26.3535 15.6976C26.5074 15.5766 26.5593 15.4651 26.5593 15.2559C26.5593 15.0062 26.4774 14.8941 25.7977 14.2135C25.3788 13.794 24.9658 13.4329 24.8799 13.411C24.7939 13.3891 24.639 13.4047 24.5354 13.4456ZM22.5754 15.3127C22.4837 15.4045 22.4192 15.573 22.4192 15.7215C22.4192 15.9374 22.5351 16.0902 23.2185 16.776C23.8884 17.4482 24.0569 17.578 24.2595 17.578C24.5815 17.578 24.8408 17.2989 24.8408 16.9523C24.8408 16.7224 24.742 16.5894 24.0749 15.9224C23.3821 15.2296 23.2814 15.1565 23.0203 15.1565C22.8358 15.1565 22.6753 15.2129 22.5754 15.3127ZM11.7311 16.2767C10.3774 17.5505 9.38201 18.071 7.37131 18.5561C6.08795 18.8658 5.42272 19.1032 4.60883 19.5419C2.15717 20.8637 0.600241 23.1275 0.0803811 26.1266C-0.0356989 26.796 -0.0183572 28.3931 0.114596 29.2783C0.836229 34.0829 4.58758 38.2527 9.4042 39.6043C11.3333 40.1455 13.6121 40.1271 15.3868 39.5557C16.0966 39.3272 17.2437 38.7626 17.7518 38.3918C18.0852 38.1484 18.1229 38.0899 18.1229 37.8149C18.1229 37.5774 18.0768 37.4727 17.917 37.347C17.6385 37.1279 17.4386 37.1431 17.0086 37.4157C15.4868 38.3809 14.0795 38.7819 12.2642 38.7677C7.31843 38.7292 2.67359 34.9078 1.48389 29.8985C1.15432 28.5108 1.15236 26.7261 1.47904 25.4487C2.03273 23.284 3.45451 21.4859 5.38444 20.5098C5.98882 20.2041 6.29628 20.1019 7.61628 19.7678C8.26074 19.6046 9.07424 19.3605 9.42404 19.2252C10.9804 18.6234 12.9932 17.0795 12.9932 16.4877C12.9932 16.1718 12.6988 15.8595 12.401 15.8595C12.2346 15.8595 12.0567 15.9703 11.7311 16.2767ZM20.8569 17.0312C20.7571 17.1311 20.7007 17.2916 20.7007 17.4761C20.7007 17.7372 20.7738 17.8379 21.4666 18.5307C22.1457 19.2098 22.2637 19.2966 22.5076 19.2966C22.8483 19.2966 23.1223 19.0326 23.1223 18.7043C23.1223 18.5157 22.976 18.3279 22.3202 17.6743C21.6345 16.9908 21.4816 16.875 21.2657 16.875C21.1173 16.875 20.9487 16.9394 20.8569 17.0312ZM16.8185 21.0161C17.7645 21.3082 18.5547 22.0354 18.9103 22.9412C19.1623 23.5827 19.1645 24.6912 18.9153 25.3251C18.5889 26.1551 17.811 26.9121 16.9511 27.2365C16.4699 27.418 15.2451 27.418 14.7639 27.2365C13.1313 26.6206 12.2275 24.8484 12.7197 23.2281C13.2644 21.4345 15.0513 20.4702 16.8185 21.0161ZM5.85821 25.6188C5.31835 25.783 4.82794 26.1994 4.56821 26.7141C4.4933 26.8625 4.41424 27.2053 4.39253 27.4757C4.35753 27.912 4.38034 28.0226 4.59438 28.4557C4.80295 28.8777 5.26242 29.3695 7.98358 32.0831C10.6079 34.7001 11.203 35.2555 11.5611 35.4218C13.2598 36.2104 15.0377 34.4332 14.2512 32.7325C14.0847 32.3725 13.5369 31.7872 10.8735 29.1238C8.21004 26.4603 7.62472 25.9125 7.26476 25.7461C6.827 25.5437 6.27082 25.4934 5.85821 25.6188ZM32.5276 26.2997C32.4376 26.319 32.2513 26.4296 32.1139 26.5457C31.8986 26.7274 31.6748 27.2429 30.4978 30.2681C29.7464 32.1994 29.1151 33.7961 29.095 33.8162C29.0749 33.8363 28.9794 33.7785 28.8827 33.6877C28.7861 33.5969 28.4962 33.425 28.2386 33.3056C27.8441 33.1228 27.6652 33.0882 27.1062 33.0867C26.3734 33.0846 26.0074 33.2205 25.607 33.6432C25.0312 34.2512 24.8994 35.2748 25.3057 35.983C25.7292 36.7215 26.4991 37.1793 27.4298 37.2459C28.21 37.3017 28.623 37.162 29.0981 36.6816C29.4804 36.2951 29.516 36.2158 30.7776 32.948C31.4865 31.1117 32.0929 29.609 32.1253 29.6086C32.2213 29.6074 37.8428 31.7988 37.8955 31.8579C37.9348 31.902 36.2161 36.4424 36.1178 36.554C36.1019 36.572 36.0098 36.5125 35.9132 36.4217C35.3586 35.9008 34.1224 35.6414 33.376 35.8894C31.9827 36.3521 31.6292 38.251 32.7481 39.2619C33.4556 39.9009 34.657 40.1777 35.4345 39.8808C35.8772 39.7117 36.2874 39.3602 36.475 38.9892C36.553 38.8347 37.377 36.7505 38.3061 34.3575C39.4499 31.4112 39.9952 29.9106 39.9949 29.7096C39.9946 29.3837 39.7753 28.9598 39.5425 28.8352C39.2125 28.6587 33.1151 26.3229 32.911 26.2949C32.7902 26.2783 32.6177 26.2805 32.5276 26.2997ZM9.97827 30.019C13.1907 33.2315 13.2016 33.2435 13.2016 33.5673C13.2016 34.0242 12.8557 34.3729 12.4024 34.3729C12.1025 34.3729 12.0309 34.3216 11.178 33.4961C8.92386 31.3139 6.0567 28.4478 5.85071 28.1705C5.53903 27.7511 5.53973 27.337 5.85266 27.024C6.03444 26.8423 6.14966 26.7957 6.41799 26.7957H6.7549L9.97827 30.019ZM35.7922 28.6764C37.3493 29.2811 38.6496 29.7922 38.682 29.8122C38.7278 29.8406 38.4826 30.5995 38.4013 30.681C38.3735 30.7089 32.702 28.5029 32.6264 28.4349C32.5546 28.3703 32.8106 27.5769 32.9033 27.5769C32.9352 27.5769 34.2352 28.0716 35.7922 28.6764ZM27.7701 34.4434C28.4095 34.7403 28.6059 35.0912 28.4036 35.5754C28.1721 36.1294 27.4486 36.2027 26.7246 35.7457C26.3359 35.5003 26.1998 35.182 26.3234 34.8074C26.3738 34.6546 26.4905 34.4768 26.5827 34.4122C26.8112 34.2522 27.3913 34.2674 27.7701 34.4434ZM34.8038 37.1757C34.9774 37.2545 35.2164 37.4344 35.3349 37.5751C35.5092 37.7822 35.5405 37.8777 35.4982 38.0745C35.3745 38.6516 35.045 38.8583 34.4315 38.7437C33.4434 38.5591 32.99 37.7842 33.531 37.2046C33.7397 36.9811 34.345 36.9673 34.8038 37.1757Z" fill="#12151C"/>
</g>
</svg>
