<svg width="40" height="40" viewBox="0 0 40 40" fill="none" xmlns="http://www.w3.org/2000/svg">
<mask id="mask0_327_3774" style="mask-type:alpha" maskUnits="userSpaceOnUse" x="0" y="0" width="40" height="40">
<rect y="-1.52588e-05" width="40" height="40" fill="white"/>
</mask>
<g mask="url(#mask0_327_3774)">
<path fill-rule="evenodd" clip-rule="evenodd" d="M13.6196 7.22827L10.0234 8.45034L7.13087 8.49255L4.23831 8.53477L3.76924 8.75367C2.87474 9.17098 2.19913 10.0506 2.01713 11.0349C1.96334 11.3259 1.93207 12.8846 1.93207 15.2743V19.0535L0.9486 24.9344C-0.144399 31.4698 -0.155813 31.5898 0.231791 32.4366C0.640346 33.3288 1.53931 34.0273 2.5184 34.2131C2.84886 34.2758 4.59808 34.2951 8.43823 34.2786L13.8889 34.2551L14.067 34.0773C14.2316 33.9129 14.247 33.8201 14.2706 32.846L14.2962 31.7926H15.0515H15.8068L17.0399 33.0239L18.273 34.2551L25.3276 34.2778C32.4007 34.3006 33.3639 34.2733 34.3169 34.0233C37.634 33.1531 39.8163 30.3781 39.9821 26.8196C40.0204 25.998 40.0045 25.8015 39.8616 25.3342C39.6289 24.574 39.1912 23.8816 38.5763 23.3014C38.1416 22.8913 38.0001 22.8022 37.7836 22.8022C37.4088 22.8022 37.1588 23.029 37.1588 23.3692C37.1588 23.6061 37.234 23.717 37.7089 24.1806C38.291 24.7487 38.6571 25.3688 38.7296 25.9091C38.7684 26.1983 38.744 26.2392 38.1663 26.8533C36.5395 28.5826 34.5171 29.2973 30.8968 29.4222C29.7707 29.461 29.2753 29.4361 27.6525 29.2591C25.1716 28.9886 25.3578 29.0368 25.4198 28.6815C25.5043 28.1972 25.921 27.436 26.3602 26.9633C26.8318 26.4558 27.3596 26.1142 28.2346 25.7503L28.8379 25.4993L29.4038 24.4439L29.9696 23.3885L32.7653 23.3494C35.4182 23.3123 35.5668 23.3026 35.6721 23.1586C35.8623 22.8982 35.8387 22.5203 35.6183 22.294C35.4723 22.1441 35.3475 22.1367 32.6037 22.1153L29.7413 22.0929L28.8727 21.4961C28.3951 21.1679 27.9928 20.891 27.9789 20.8808C27.965 20.8705 28.009 20.7552 28.0766 20.6244C28.241 20.3064 28.2317 20.1277 28.0376 19.8811C27.8015 19.5807 27.3463 19.5909 27.0843 19.9023L26.893 20.1296L26.1587 19.6196C25.7549 19.3391 25.4119 19.0983 25.3966 19.0843C25.3812 19.0705 25.4815 18.9021 25.6194 18.7101C25.8236 18.4259 25.8602 18.3162 25.8169 18.1191C25.6955 17.5661 25.1562 17.4902 24.6517 17.9552C24.4651 18.1271 24.2875 18.2679 24.2571 18.2679C24.2266 18.2679 23.8008 17.9915 23.3107 17.6537L22.4196 17.0395L22.6059 16.8645C22.8552 16.6303 22.9124 16.3613 22.7709 16.0877C22.551 15.6624 22.1135 15.6467 21.701 16.0496L21.4108 16.3329L20.2905 15.5685C19.6744 15.148 19.1625 14.7987 19.1531 14.7923C19.1436 14.786 19.0852 14.4431 19.0232 14.0305C18.9612 13.6179 18.8701 13.2047 18.8206 13.1123C18.6387 12.7725 18.111 12.7319 17.8353 13.0364C17.7202 13.1636 17.7088 13.2786 17.7565 13.8307C17.7872 14.1857 17.8187 14.5587 17.8267 14.6597C17.8392 14.8185 17.3767 15.1599 14.3623 17.2168C12.4489 18.5223 10.813 19.6727 10.727 19.7731C10.6349 19.8807 10.4287 20.484 10.2251 21.242C10.035 21.9496 9.86841 22.5427 9.85497 22.5599C9.84144 22.5772 9.65726 22.4293 9.44563 22.2314C8.99314 21.8081 8.38539 21.413 7.82134 21.1754C7.01236 20.8347 6.52664 20.7719 4.68783 20.7707C2.71338 20.7694 2.88912 20.8491 3.03351 20.0197L3.11873 19.5307L4.57963 19.5052L6.04053 19.4796L6.54657 19.2301C6.97022 19.0212 7.30888 18.7218 8.62469 17.3929C10.602 15.396 10.5475 15.5059 10.5936 13.4209L10.6256 11.9746L13.8791 10.9429C15.6686 10.3754 17.1419 9.92023 17.153 9.93133C17.1642 9.94243 17.2131 10.2196 17.2618 10.5471C17.3642 11.2359 17.558 11.495 17.962 11.4835C18.2374 11.4756 18.4148 11.3536 18.5082 11.108C18.5492 11.0003 18.4523 10.1047 18.2426 8.65204C17.9226 6.43508 17.906 6.35987 17.6966 6.17975C17.5778 6.07757 17.4211 5.99674 17.3482 6.0001C17.2753 6.00346 15.5975 6.55618 13.6196 7.22827ZM16.8934 8.05812C16.9326 8.35997 16.9326 8.61232 16.8934 8.64828C16.84 8.6973 12.8816 9.97886 10.942 10.575L10.6098 10.6771V10.1011V9.52504L13.6391 8.50874C15.3053 7.94977 16.7037 7.50103 16.7467 7.51158C16.7897 7.52214 16.8557 7.76808 16.8934 8.05812ZM9.35893 10.3329V10.9192H6.3491C4.56376 10.9192 3.33927 10.8899 3.33927 10.8471C3.33927 10.6739 3.87697 10.0946 4.19195 9.92836C4.53108 9.74941 4.5747 9.74652 6.9477 9.74652H9.35893V10.3329ZM9.35815 13.3622C9.35713 14.9868 9.37222 14.9581 7.59009 16.709C6.47113 17.8082 6.12864 18.1002 5.87097 18.1748C5.68529 18.2285 5.04869 18.2679 4.36605 18.2679H3.18291V15.2189V12.17H6.27092H9.35893L9.35815 13.3622ZM20.2658 17.0682L20.4958 17.2365L19.8639 17.9281C19.5164 18.3084 19.2073 18.6975 19.1772 18.7926C19.0724 19.1237 19.4002 19.512 19.7881 19.5162C19.9721 19.5182 20.164 19.3719 20.7999 18.7443L21.5846 17.9699L22.5065 18.6029L23.4284 19.2359L22.8824 19.7989C22.2598 20.4409 22.1853 20.7037 22.5283 21.0467C22.8884 21.4068 23.1313 21.3223 23.8245 20.5958L24.4377 19.953L25.238 20.4981C25.6782 20.7978 26.0723 21.0659 26.1138 21.0937C26.1554 21.1217 25.9919 21.4244 25.7482 21.7701C25.501 22.1208 25.3071 22.4806 25.3071 22.5885C25.3071 22.8797 25.5904 23.193 25.8537 23.193C26.2192 23.193 26.3054 23.1252 26.7615 22.4779L27.1983 21.8582L27.4076 21.9979C28.4294 22.6802 28.7466 22.9155 28.7446 22.9895C28.7433 23.037 28.5586 23.4047 28.3342 23.8068L27.9261 24.5378L27.374 24.7506C25.846 25.3392 24.6511 26.6819 24.242 28.2699C24.1238 28.7291 24.0728 28.8218 23.9388 28.8218C23.8501 28.8218 22.6754 28.6996 21.3281 28.5503C18.7788 28.2678 18.6889 28.2687 18.4496 28.5805C18.2559 28.8328 18.3655 29.2885 18.6573 29.4447C18.9223 29.5865 29.2857 30.7095 30.7405 30.754C33.6299 30.8424 36.0593 30.1617 37.9429 28.736C38.227 28.521 38.4775 28.3633 38.4997 28.3855C38.605 28.4907 37.911 29.8823 37.4629 30.4646C36.3681 31.8874 34.8621 32.7311 32.949 32.9934L32.6558 33.0335V32.605C32.6558 32.2541 32.621 32.1415 32.4639 31.9845C32.2229 31.7434 31.9438 31.7399 31.6709 31.9748C31.4992 32.1225 31.4522 32.2407 31.4223 32.6002L31.3856 33.0434H29.5581H27.7306V32.58C27.7306 32.1725 27.7058 32.0971 27.5246 31.9546C27.4114 31.8655 27.2402 31.7926 27.1443 31.7926C27.0484 31.7926 26.8772 31.8655 26.764 31.9546C26.5828 32.0971 26.558 32.1725 26.558 32.58V33.0434H24.7305H22.903L22.8663 32.6002C22.8364 32.2407 22.7894 32.1225 22.6177 31.9748C22.3447 31.7399 22.0657 31.7434 21.8247 31.9845C21.6671 32.142 21.6328 32.2538 21.6328 32.6099V33.0434H20.2441H18.8555L17.7229 31.9018C17.1 31.2739 16.4771 30.7111 16.3388 30.6509C16.1579 30.5724 15.7342 30.5417 14.8299 30.5417C13.5245 30.5417 13.1923 30.6093 13.0818 30.897C13.0552 30.9666 13.0333 31.4781 13.0333 32.0335V33.0434H11.8312H10.6292L10.5924 32.6002C10.5625 32.2407 10.5156 32.1225 10.3438 31.9748C10.0709 31.7399 9.79188 31.7434 9.55086 31.9845C9.39325 32.142 9.35893 32.2538 9.35893 32.6099V33.0434H7.52176H5.68459V32.6465C5.68459 32.312 5.64863 32.2136 5.45608 32.0211C5.17409 31.7391 4.88382 31.7263 4.62568 31.9845C4.46807 32.142 4.43375 32.2538 4.43375 32.6099V33.0434H3.71577C2.03886 33.0434 1.21706 32.4063 1.23324 31.119C1.24161 30.4592 1.41641 29.6404 1.54486 29.6599C1.60732 29.6694 2.08139 29.7975 2.59838 29.9444C4.21743 30.4048 4.90352 30.4962 6.73998 30.4962C7.98629 30.4962 8.57004 30.4621 9.16349 30.3544C10.0525 30.1931 11.5599 29.774 12.1212 29.532C12.4719 29.3807 12.6447 29.3691 14.5311 29.3691H16.5633L16.7918 29.1405C16.9175 29.0148 17.0203 28.8548 17.0203 28.7848C17.0203 28.5917 16.8075 28.2215 16.665 28.1668C16.5954 28.1401 15.6972 28.1182 14.6689 28.1182H12.7993L11.774 26.0688L10.7487 24.0193L11.1975 22.3749C11.4443 21.4705 11.6857 20.6681 11.7339 20.5921C11.7821 20.5159 13.3343 19.4218 15.1831 18.1606L18.5448 15.8676L19.2903 16.3836C19.7003 16.6675 20.1393 16.9755 20.2658 17.0682ZM6.77556 22.1357C7.49948 22.3284 8.1532 22.7018 8.68629 23.227C9.1559 23.6897 9.26128 23.8681 10.3652 26.0683L11.5431 28.4158L11.2524 28.5316C11.0924 28.5953 10.6977 28.7208 10.3752 28.8106C7.70899 29.5525 5.16674 29.4917 2.47564 28.6218L1.64469 28.3531L2.14034 25.3626C2.41294 23.7179 2.6542 22.2931 2.6764 22.1963L2.71682 22.0204L4.53296 22.0213C5.86995 22.022 6.4616 22.0522 6.77556 22.1357Z" fill="#12151C"/>
</g>
</svg>
