<svg width="40" height="40" viewBox="0 0 40 40" fill="none" xmlns="http://www.w3.org/2000/svg">
<mask id="mask0_327_3758" style="mask-type:alpha" maskUnits="userSpaceOnUse" x="0" y="0" width="40" height="40">
<rect y="-1.52588e-05" width="40" height="40" fill="white"/>
</mask>
<g mask="url(#mask0_327_3758)">
<path fill-rule="evenodd" clip-rule="evenodd" d="M9.54135 0.113771C8.54967 0.477361 7.64676 1.35931 7.44475 2.16181C7.39861 2.34497 7.32102 2.49529 7.27238 2.49591C7.08726 2.49826 5.53858 3.29317 5.0759 3.62336C4.10237 4.31801 3.42884 5.22311 3.12586 6.24349C2.96107 6.79861 2.9574 8.484 3.11898 9.42555C3.44855 11.3467 4.16016 13.4469 5.21793 15.6202L5.5683 16.3401L5.3867 16.6712C4.96125 17.4471 5.02428 17.945 5.67357 18.9364C7.61673 21.9037 10.1615 23.8925 12.8161 24.5183L13.4015 24.6564V26.0772C13.4015 26.8677 13.4379 27.6026 13.4836 27.7336C13.6305 28.155 14.1445 28.2715 14.4608 27.9551L14.6528 27.7632V25.889C14.6528 24.8582 14.6309 23.9579 14.6042 23.8883C14.5361 23.7109 14.2233 23.5661 13.6752 23.4585C11.4438 23.0205 9.31033 21.6547 7.70526 19.637C6.96557 18.7071 6.36274 17.7639 6.36274 17.5363C6.36274 17.3087 6.68668 16.9633 6.90026 16.9633C7.19558 16.9633 7.30507 17.0638 7.82539 17.8124C9.56231 20.3115 11.2317 21.6155 13.466 22.2182C14.2886 22.4401 15.9935 22.4596 16.8594 22.2569C19.1371 21.7237 20.9781 20.3095 22.7004 17.77C23.2541 16.9537 23.4917 16.8176 23.8712 17.0996C24.2343 17.3695 24.1918 17.6666 23.6791 18.4389C21.8261 21.2308 19.452 22.9563 16.7644 23.4644C16.3964 23.534 16.1967 23.6198 16.041 23.7753L15.8259 23.99L15.8266 26.9093C15.8274 30.8598 15.9306 31.6413 16.6462 33.12C17.6551 35.2048 19.3626 36.6431 21.6693 37.351C22.31 37.5476 22.4538 37.5619 23.8032 37.5619C25.1523 37.5619 25.2964 37.5476 25.9366 37.3512C27.9821 36.7233 29.7152 35.3604 30.7225 33.5875C31.1981 32.7503 31.598 31.4573 31.7002 30.4264C31.7443 29.9809 31.7804 27.8254 31.7804 25.6362V21.6558H32.367H32.9535L32.952 25.8595C32.9509 29.025 32.9233 30.266 32.8404 30.8844C32.6021 32.6624 31.8739 34.2774 30.6544 35.7327C30.236 36.2321 30.1848 36.5415 30.4754 36.8146C30.7695 37.0908 31.084 37.0389 31.4597 36.6522C32.2978 35.7898 33.1768 34.2959 33.6109 32.996C34.1352 31.4256 34.141 31.3553 34.182 26.0588L34.219 21.2722L34.4661 21.1902C35.1545 20.9619 36.2268 20.0405 36.7458 19.2314C37.3503 18.2889 37.5858 17.4901 37.587 16.3768C37.5888 14.891 37.1366 13.795 36.0836 12.7322C35.0956 11.7352 34.0945 11.2504 32.7766 11.131C32.2405 11.0824 32.187 11.0918 31.9782 11.2715C31.4938 11.6881 31.8208 12.349 32.5113 12.349C33.402 12.349 34.4871 12.844 35.2086 13.5795C36.7869 15.1882 36.7612 17.6461 35.1494 19.2314C33.8604 20.4992 32.0215 20.7661 30.4277 19.9166C29.5284 19.4373 28.7142 18.4039 28.4479 17.4038C28.3026 16.8581 28.3112 15.835 28.4653 15.3156C28.7529 14.3463 29.3187 13.5548 30.0724 13.0675C30.9152 12.5227 30.9983 12.4414 30.9983 12.1624C30.9983 11.8286 30.7511 11.567 30.4358 11.567C29.853 11.567 28.5922 12.5304 28.0022 13.4266C27.3239 14.4572 27.0381 15.4972 27.1086 16.679C27.2245 18.6219 28.3124 20.2324 30.1229 21.1417L30.538 21.3501L30.5105 26.0586C30.4802 31.2369 30.4966 31.048 29.9648 32.3376C29.4134 33.6748 28.2765 34.9001 26.9334 35.6047C22.8975 37.7222 18.0392 35.3653 17.1993 30.8824C17.0978 30.3404 17.0789 29.7149 17.0958 27.4509L17.1164 24.6822L17.7811 24.504C20.1291 23.8748 22.1764 22.4231 24.0055 20.0907C25.3644 18.3578 25.6118 17.6411 25.1623 16.7391L24.9574 16.3277L25.3137 15.5702C27.1781 11.6061 27.9338 8.12307 27.3537 6.1681C27.1459 5.46743 26.8795 5.02556 26.2924 4.40756C25.621 3.70063 24.839 3.17539 23.8447 2.76339C23.3069 2.54057 23.1018 2.41771 23.1008 2.31799C23.0976 2.02518 22.7366 1.4204 22.3192 1.00886C21.1385 -0.155108 19.7844 -0.325367 18.815 0.568239C17.8053 1.49892 17.7114 3.12979 18.61 4.12921C19.0481 4.61653 19.5039 4.80532 20.2123 4.79297C21.0279 4.77873 21.9094 4.44212 22.4791 3.92736L22.7904 3.64612L23.3163 3.86815C24.1342 4.21344 24.7382 4.59377 25.2569 5.08992C26.0933 5.88999 26.3591 6.67997 26.2785 8.12581C26.1757 9.97308 25.5409 12.1327 24.329 14.7588C23.914 15.658 23.8272 15.7943 23.6927 15.7592C23.4532 15.6964 22.8579 15.8547 22.5352 16.0669C22.3755 16.1719 22.0621 16.5309 21.8386 16.8647C20.7986 18.4184 19.9743 19.2924 18.8241 20.0613C16.8655 21.3707 14.4868 21.5398 12.4376 20.5155C11.2713 19.9325 9.82525 18.5778 8.88456 17.1869C8.57494 16.7293 8.21291 16.2632 8.07996 16.1514C7.80959 15.9239 7.05707 15.6758 6.82292 15.737C6.69551 15.7703 6.60808 15.6522 6.2929 15.021C5.13065 12.6932 4.35029 10.1113 4.20896 8.12581C4.06553 6.11148 4.88077 4.89597 7.01234 3.94621L7.69548 3.64174L7.90899 3.84094C8.77812 4.65196 10.348 5.02759 11.2116 4.63123C12.2003 4.17747 12.7186 2.99582 12.4275 1.85938C12.2032 0.983915 11.6482 0.335492 10.9067 0.0828009C10.5535 -0.0376397 9.91464 -0.0230929 9.54135 0.113771ZM10.8114 1.4297C11.0548 1.64618 11.2859 2.15454 11.2881 2.47777C11.292 3.05745 10.8657 3.59052 10.3995 3.58887C9.90314 3.58715 9.07914 3.25938 8.78946 2.9485C8.50181 2.63974 8.579 2.35733 9.08548 1.86485C9.77574 1.19351 10.3758 1.04226 10.8114 1.4297ZM20.854 1.41422C21.4884 1.73205 21.9786 2.41301 21.841 2.78513C21.7016 3.16201 20.5366 3.65121 19.99 3.56252C19.6384 3.5055 19.4603 3.33939 19.2997 2.91879C19.1415 2.5046 19.197 2.10996 19.4729 1.68732C19.8099 1.17107 20.2105 1.09184 20.854 1.41422ZM31.5842 14.132C29.4374 14.8743 29.4704 17.9295 31.6331 18.6479C32.4509 18.9195 33.4334 18.6602 34.0641 18.0063C34.9659 17.0715 34.9266 15.5583 33.9774 14.6705C33.3148 14.0508 32.4087 13.8469 31.5842 14.132ZM32.9615 15.4203C34.159 16.2203 33.1165 18.0037 31.813 17.3852C31.0333 17.0151 31.0254 15.7535 31.8004 15.3714C32.1703 15.189 32.6452 15.209 32.9615 15.4203ZM13.6978 29.1922C13.4499 29.3806 13.4034 29.6648 13.4794 30.5295C13.7644 33.7737 15.4156 36.549 18.1331 38.3513C19.2456 39.0891 20.3793 39.5576 21.7697 39.8539C22.6077 40.0326 24.8885 40.0517 25.7193 39.8872C26.9579 39.6418 28.3889 39.0658 29.4163 38.3991C29.9742 38.0371 30.1194 37.7865 29.9744 37.4365C29.7672 36.9364 29.4445 36.9481 28.5384 37.4888C26.8163 38.5164 24.9896 38.9388 22.9959 38.7703C20.8103 38.5855 18.8423 37.6549 17.2948 36.0744C15.7336 34.4799 14.9424 32.7429 14.702 30.3828C14.6116 29.4956 14.5776 29.3553 14.4218 29.2292C14.2162 29.0628 13.8901 29.0461 13.6978 29.1922Z" fill="#12151C"/>
</g>
</svg>
