<svg width="40" height="40" viewBox="0 0 40 40" fill="none" xmlns="http://www.w3.org/2000/svg">
<mask id="mask0_327_3766" style="mask-type:alpha" maskUnits="userSpaceOnUse" x="0" y="0" width="40" height="40">
<rect y="-1.52588e-05" width="40" height="40" fill="white"/>
</mask>
<g mask="url(#mask0_327_3766)">
<path fill-rule="evenodd" clip-rule="evenodd" d="M15.2028 0.141531C13.5591 0.614644 12.3126 1.94375 11.9694 3.5891C11.8448 4.18643 11.6994 5.89311 11.7545 6.11256C11.8606 6.53536 12.5654 6.6284 12.7994 6.25052C12.8525 6.16474 12.9501 5.63179 13.0162 5.06617C13.1761 3.69801 13.2489 3.40317 13.5675 2.83279C14.0355 1.995 14.9484 1.38798 15.9601 1.24166C16.626 1.14541 23.9688 1.15057 24.6557 1.24783C26.0621 1.44689 27.1371 2.47749 27.4237 3.90159C27.4713 4.13792 27.8116 7.05581 28.1801 10.3858C28.6715 14.828 28.8396 16.5993 28.8114 17.0375C28.7111 18.5978 27.5141 19.8096 25.8778 20.0074C25.5308 20.0494 22.9364 20.07 19.8453 20.0554C14.5412 20.0304 14.4119 20.0262 13.9836 19.8642C12.7847 19.4108 12.0489 18.5469 11.7994 17.2997C11.7145 16.8751 11.7509 16.4261 12.185 12.5342C12.4486 10.171 12.6642 8.19188 12.664 8.13626C12.6639 8.08055 12.5775 7.94876 12.472 7.84329C12.2413 7.61252 11.8946 7.59252 11.6438 7.79564C11.4743 7.9329 11.4425 8.14938 10.9756 12.3463C10.5606 16.0768 10.4961 16.8367 10.5551 17.2997C10.7498 18.8281 11.6702 20.1341 12.9999 20.7689C13.3521 20.937 13.8267 21.1129 14.0543 21.1598C14.292 21.2087 15.3486 21.2449 16.5347 21.2449H18.6012V22.1408V23.0366L14.363 23.0587L10.1248 23.0808L9.75637 23.2974C9.55372 23.4165 9.29334 23.6379 9.17779 23.7895C8.98428 24.0432 8.93944 24.063 8.60874 24.0416L8.24985 24.0183L8.21078 19.7215C8.17172 15.428 8.17157 15.4245 7.99274 15.0895C7.73251 14.6021 7.24479 14.1655 6.75668 13.9829C6.39255 13.8467 6.14748 13.8232 5.08586 13.8232C3.6141 13.8232 3.21606 13.9295 2.6717 14.4675C2.10758 15.0251 2 15.3035 2 16.206C2 16.9221 2.02078 17.031 2.24882 17.5124C2.67295 18.4077 3.41207 19.0679 4.34268 19.3827L4.73431 19.5152L4.78024 22.0792C4.82962 24.8336 4.84337 24.9319 5.29242 25.7353C5.54288 26.1835 6.16748 26.7959 6.63192 27.0486C7.24753 27.3837 7.82282 27.4948 8.94248 27.4948C9.87691 27.4948 9.97215 27.5084 10.1956 27.6751C10.3285 27.7743 10.6306 27.9412 10.867 28.0462L11.2966 28.2369L14.9489 28.2594L18.6012 28.2819V30.8098V33.3379L15.4958 33.3738C12.9304 33.4034 12.3089 33.4322 11.9216 33.5388C10.5506 33.9162 9.36896 34.8726 8.76843 36.091C8.42023 36.7972 8.21438 37.5954 8.21211 38.2473C8.21032 38.7846 8.53203 39.4031 8.97545 39.7147C9.39552 40.0099 10.0736 40.08 10.5926 39.8818C11.1655 39.663 11.6482 38.9886 11.6482 38.4071C11.6482 37.8108 11.9716 37.2663 12.469 37.0255C12.7734 36.8782 12.9523 36.8695 15.6962 36.8695H18.6012L18.6029 37.7875C18.6048 38.8423 18.7097 39.1742 19.1681 39.5767C19.9235 40.24 21.0865 40.1053 21.6921 39.2845C21.9663 38.9128 22.0376 38.5794 22.0381 37.6676L22.0386 36.8642L25.0329 36.8864L28.0273 36.9086L28.3148 37.128C28.6413 37.377 28.9132 37.8523 28.9139 38.175C28.9164 39.4774 30.2356 40.3735 31.3743 39.8463C32.0232 39.5459 32.3508 38.9818 32.3508 38.1649C32.3508 37.4461 32.2251 36.9231 31.8797 36.2055C31.3857 35.179 30.6684 34.4397 29.6754 33.9335C28.7094 33.441 28.5001 33.4155 25.1049 33.3752L22.0386 33.3389V30.8074V28.276H22.736C23.3964 28.276 23.442 28.2651 23.5953 28.0701C23.8102 27.7971 23.7999 27.5302 23.5655 27.2959L23.3738 27.1041H17.7492C12.0266 27.1041 11.5516 27.0829 11.1021 26.8063C10.1953 26.2484 9.71504 25.0208 10.1992 24.4984L10.3908 24.2917H20.3025H30.2142L30.3944 24.4835C30.7634 24.8763 30.5487 25.8542 29.9655 26.4375C29.395 27.008 29.1792 27.0584 27.1947 27.0851C26.2279 27.0981 25.3585 27.1258 25.2626 27.1466C25.0371 27.1956 24.8323 27.5886 24.8973 27.8475C24.9992 28.2534 25.1188 28.2761 27.1535 28.2751C29.2467 28.2742 29.495 28.2335 30.2533 27.7666C30.6944 27.4949 30.6954 27.4948 31.6545 27.4948C33.1756 27.4948 33.9492 27.2309 34.7368 26.4433C35.2203 25.9597 35.5004 25.4685 35.6637 24.8174C35.7642 24.4167 35.7882 23.8574 35.7882 21.9211C35.7882 20.0686 35.8105 19.5148 35.8859 19.4927C36.8949 19.1972 37.5335 18.7829 37.9925 18.1258C38.4316 17.4974 38.6164 16.9397 38.6289 16.206C38.6381 15.6675 38.6094 15.5195 38.4217 15.1371C38.1854 14.6559 37.8464 14.315 37.329 14.0385C37.0199 13.8734 36.9058 13.8623 35.5148 13.8623C34.0567 13.8623 34.0234 13.866 33.6349 14.071C33.1156 14.3451 32.7211 14.7925 32.5165 15.3394C32.3553 15.7701 32.3508 15.8949 32.3508 19.9198V24.0573H31.9917C31.662 24.0573 31.6051 24.0268 31.2983 23.6857C30.7074 23.0284 30.808 23.0409 26.1205 23.0414L22.0386 23.0417V22.1433V21.2449H24.1315C25.7462 21.2449 26.3307 21.2178 26.69 21.1263C28.4219 20.6852 29.7678 19.1886 30.026 17.4165C30.1165 16.7957 30.0905 16.4988 29.3963 10.2376C28.6196 3.23239 28.5874 3.0381 28.0624 2.18515C27.4041 1.11573 26.5707 0.475897 25.4001 0.14114C24.9276 0.0060653 24.5553 -0.00416883 20.281 0.000987297C16.1579 0.00598717 15.6221 0.0208306 15.2028 0.141531ZM6.57481 15.2844C6.97972 15.6251 7.03894 15.8682 7.03894 17.19V18.3744L5.96475 18.339C5.07399 18.3096 4.82384 18.2738 4.49994 18.1297C3.79714 17.8167 3.3584 17.2571 3.21239 16.4872C3.11591 15.9786 3.22645 15.6131 3.56707 15.314L3.84136 15.0732H5.08258C6.31747 15.0732 6.32513 15.0743 6.57481 15.2844ZM36.9452 15.2315C37.2366 15.409 37.4288 15.7943 37.4288 16.2005C37.4288 16.5803 37.1624 17.2535 36.8972 17.5439C36.336 18.1582 35.7239 18.3544 34.3676 18.3544H33.6008V17.1005C33.6008 15.7015 33.6555 15.4929 34.0929 15.2263C34.3115 15.093 34.4901 15.0737 35.5148 15.0737C36.5527 15.0737 36.7162 15.0918 36.9452 15.2315ZM7.03894 21.9179C7.03894 24.1855 7.0473 24.3243 7.19932 24.5949C7.43471 25.0137 7.80572 25.2356 8.35359 25.2853C8.8171 25.3273 8.81796 25.3279 8.86178 25.6104C8.886 25.7659 8.92928 25.9723 8.95803 26.069C9.00873 26.2396 8.99412 26.2448 8.45718 26.2448C7.72259 26.2448 7.16909 26.0352 6.7573 25.6011C6.05482 24.8605 6.02334 24.699 6.02334 21.8353V19.5262H6.53114H7.03894V21.9179ZM34.5383 22.0136V24.5012L34.2994 24.9792C33.8748 25.8289 33.177 26.2428 32.1667 26.244C31.6315 26.2447 31.5591 26.2285 31.6017 26.1175C31.6286 26.0475 31.6892 25.8366 31.7365 25.6488C31.8151 25.3368 31.8436 25.3073 32.0671 25.3068C32.7592 25.3057 33.3544 24.9027 33.5141 24.3271C33.5672 24.1361 33.6001 23.1616 33.6003 21.7722L33.6008 19.5262H34.0695H34.5383V22.0136ZM20.7886 22.1433V23.0417H20.2808H19.773V22.1433V21.2449H20.2808H20.7886V22.1433ZM20.8055 31.281C20.8259 34.043 20.8389 34.2973 20.967 34.4254C21.0952 34.5537 21.3888 34.5686 24.6388 34.611C27.558 34.6491 28.2339 34.6784 28.5321 34.78C30.0207 35.2868 31.0576 36.597 31.1203 38.0506C31.1426 38.5655 31.0187 38.764 30.6755 38.764C30.3519 38.764 30.19 38.5563 30.1406 38.0778C30.0575 37.2724 29.5725 36.4749 28.9058 36.0473C28.2722 35.641 28.0488 35.6194 24.5048 35.6221C22.0445 35.6239 21.1871 35.6485 21.0943 35.7197C20.8325 35.9207 20.7886 36.1506 20.7886 37.321C20.7886 38.3801 20.7746 38.4986 20.6349 38.625C20.442 38.7996 20.1117 38.8041 19.9418 38.6345C19.8336 38.5265 19.8079 38.2911 19.7873 37.2201C19.7626 35.9386 19.762 35.9347 19.5572 35.7736C19.3556 35.6151 19.2889 35.6125 15.9102 35.6353L12.4685 35.6586L12.0235 35.8672C11.1833 36.261 10.61 37.0301 10.4778 37.9407C10.3907 38.5411 10.3343 38.6648 10.109 38.7505C9.91512 38.8242 9.63809 38.7332 9.52052 38.557C9.4263 38.4159 9.45294 37.8699 9.57731 37.3924C9.8959 36.1693 10.7352 35.2733 12.0108 34.7944C12.3527 34.6661 12.7391 34.649 15.9059 34.6226C19.3517 34.5937 19.425 34.5899 19.5972 34.4287L19.773 34.2642V31.2701V28.276H20.2781H20.7833L20.8055 31.281Z" fill="#12151C"/>
</g>
</svg>
