<svg width="32" height="32" viewBox="0 0 32 32" fill="none" xmlns="http://www.w3.org/2000/svg">
<mask id="mask0_327_12883" style="mask-type:alpha" maskUnits="userSpaceOnUse" x="0" y="0" width="32" height="32">
<rect width="32" height="32" fill="white"/>
</mask>
<g mask="url(#mask0_327_12883)">
<path d="M12.666 8.66667H18.666C20.507 8.66667 21.9993 10.1591 21.9993 12C21.9993 13.841 20.507 15.3333 18.666 15.3333H12.666V8.66667ZM12.666 8.66667V23.3333M12.9993 15.3333H10.666M17.3327 19.6667H10.666M29.3327 16C29.3327 23.3638 23.3631 29.3333 15.9993 29.3333C8.63555 29.3333 2.66602 23.3638 2.66602 16C2.66602 8.63621 8.63555 2.66667 15.9993 2.66667C23.3631 2.66667 29.3327 8.63621 29.3327 16Z" stroke="#12151C" stroke-width="2" stroke-linecap="round" stroke-linejoin="round"/>
</g>
</svg>
