<svg width="32" height="32" viewBox="0 0 32 32" fill="none" xmlns="http://www.w3.org/2000/svg">
<mask id="mask0_327_12779" style="mask-type:alpha" maskUnits="userSpaceOnUse" x="0" y="0" width="32" height="32">
<rect width="32" height="32" fill="white"/>
</mask>
<g mask="url(#mask0_327_12779)">
<path d="M11.3327 19.5555C11.3327 21.2738 12.7256 22.6667 14.4438 22.6667H17.3327C19.1736 22.6667 20.666 21.1743 20.666 19.3333C20.666 17.4924 19.1736 16 17.3327 16H14.666C12.8251 16 11.3327 14.5076 11.3327 12.6667C11.3327 10.8257 12.8251 9.33332 14.666 9.33332H17.5549C19.2731 9.33332 20.666 10.7262 20.666 12.4444M15.9993 7.33332V9.33332M15.9993 22.6667V24.6667M29.3327 16C29.3327 23.3638 23.3631 29.3333 15.9993 29.3333C8.63555 29.3333 2.66602 23.3638 2.66602 16C2.66602 8.63619 8.63555 2.66666 15.9993 2.66666C23.3631 2.66666 29.3327 8.63619 29.3327 16Z" stroke="#12151C" stroke-width="2" stroke-linecap="round" stroke-linejoin="round"/>
</g>
</svg>
