<svg width="32" height="32" viewBox="0 0 32 32" fill="none" xmlns="http://www.w3.org/2000/svg">
<mask id="mask0_327_12831" style="mask-type:alpha" maskUnits="userSpaceOnUse" x="0" y="0" width="32" height="32">
<rect width="32" height="32" fill="white"/>
</mask>
<g mask="url(#mask0_327_12831)">
<path d="M12.666 10H18.3327C19.9895 10 21.3327 11.3431 21.3327 13C21.3327 14.6569 19.9895 16 18.3327 16H12.666H18.9993C20.6562 16 21.9993 17.3431 21.9993 19C21.9993 20.6569 20.6562 22 18.9993 22H12.666M12.666 10H10.666M12.666 10V22M12.666 22H10.666M13.3327 8V10M13.3327 22V24M17.3327 8V10M17.3327 22V24M29.3327 16C29.3327 23.3638 23.3631 29.3333 15.9993 29.3333C8.63555 29.3333 2.66602 23.3638 2.66602 16C2.66602 8.6362 8.63555 2.66667 15.9993 2.66667C23.3631 2.66667 29.3327 8.6362 29.3327 16Z" stroke="#12151C" stroke-width="2" stroke-linecap="round" stroke-linejoin="round"/>
</g>
</svg>
