<svg width="32" height="32" viewBox="0 0 32 32" fill="none" xmlns="http://www.w3.org/2000/svg">
<mask id="mask0_327_12857" style="mask-type:alpha" maskUnits="userSpaceOnUse" x="0" y="0" width="32" height="32">
<rect width="32" height="32" fill="white"/>
</mask>
<g mask="url(#mask0_327_12857)">
<path d="M20.4438 11.0309C19.2643 9.97523 17.7068 9.33333 15.9993 9.33333C12.3174 9.33333 9.33268 12.3181 9.33268 16C9.33268 19.6819 12.3174 22.6667 15.9993 22.6667C17.7068 22.6667 19.2643 22.0248 20.4438 20.9691M7.99935 18H14.666M7.99935 14H14.666M29.3327 16C29.3327 23.3638 23.3631 29.3333 15.9993 29.3333C8.63555 29.3333 2.66602 23.3638 2.66602 16C2.66602 8.6362 8.63555 2.66667 15.9993 2.66667C23.3631 2.66667 29.3327 8.6362 29.3327 16Z" stroke="#12151C" stroke-width="2" stroke-linecap="round" stroke-linejoin="round"/>
</g>
</svg>
