<svg width="24" height="32" viewBox="0 0 24 32" fill="none" xmlns="http://www.w3.org/2000/svg">
<path fill-rule="evenodd" clip-rule="evenodd" d="M13.9014 2.15903L11.7321 4.31806L0 4.37695L0 21.0304L13.6708 7.61669H18.0141L0 25.5327V27.794L7.37485 27.8542L6.44476 28.7903L5.51456 29.7265L6.58779 30.8632L7.66102 32L9.7517 29.9265L11.8423 27.8529L23.6667 27.794V11.1406L10.0135 24.5543H5.6688L23.6667 6.64113V4.37695L16.3091 4.31681L17.3326 3.29453L18.356 2.27225L17.2133 1.13618L16.0706 0L13.9014 2.15903ZM8.92668 7.64602C7.07603 9.52776 5.19671 11.3815 3.32442 13.2419V7.61669L8.92668 7.64602ZM20.3598 21.7692V24.5543H17.5311H14.7021L17.5016 21.7692C19.0413 20.2375 20.3142 18.9842 20.3304 18.9842C20.3466 18.9842 20.3598 20.2375 20.3598 21.7692Z" fill="#12151C"/>
</svg>
