<svg width="52" height="32" viewBox="0 0 52 32" fill="none" xmlns="http://www.w3.org/2000/svg">
<path fill-rule="evenodd" clip-rule="evenodd" d="M46.6206 25.6579C40.9737 29.7985 32.7876 32 25.7376 32C15.8574 32 6.96046 28.3712 0.228368 22.3315C-0.300113 21.8571 0.170691 21.2094 0.806477 21.5772C8.06973 25.7765 17.0526 28.3059 26.3305 28.3059C32.5891 28.3059 39.4687 27.0158 45.7998 24.3478C46.7534 23.944 47.5542 24.9715 46.6206 25.6579ZM48.9693 22.9925C49.6923 23.9121 48.1658 27.6982 47.4845 29.3893C47.2779 29.9011 47.7205 30.1076 48.1873 29.7198C51.216 27.2024 51.9993 21.9264 51.3796 21.1641C50.764 20.4085 45.4684 19.7581 42.2359 22.013C41.7382 22.3595 41.8241 22.8393 42.3754 22.7726C44.1955 22.5567 48.2477 22.073 48.9693 22.9925Z" fill="#FF9900"/>
<path fill-rule="evenodd" clip-rule="evenodd" d="M40.7918 16.2132L46.6695 1.34995C46.7929 1.04877 46.8559 0.836874 46.8559 0.712936C46.8559 0.501042 46.7312 0.394428 46.4817 0.394428H44.9861C44.7004 0.394428 44.5059 0.439739 44.3973 0.527695C44.29 0.616984 44.184 0.811553 44.0767 1.11274L40.4699 11.4103L36.7303 1.11274C36.623 0.811553 36.517 0.616984 36.4097 0.527695C36.3024 0.439739 36.1066 0.394428 35.8209 0.394428H34.218C33.9685 0.394428 33.8438 0.501042 33.8438 0.712936C33.8438 0.836874 33.9054 1.04877 34.0302 1.34995L39.1862 13.9836L38.6792 15.3376C38.3761 16.1879 38.0381 16.7716 37.6638 17.0901C37.2896 17.4086 36.7638 17.5672 36.0878 17.5672C35.7846 17.5672 35.5445 17.5485 35.3675 17.5139C35.1891 17.4792 35.055 17.4606 34.9664 17.4606C34.6995 17.4606 34.5654 17.6285 34.5654 17.9643V18.6546C34.5654 18.9025 34.6096 19.0838 34.6995 19.1984C34.788 19.313 34.9302 19.3983 35.1274 19.4502C35.5714 19.5728 36.0797 19.6368 36.6498 19.6368C37.6652 19.6368 38.4887 19.3716 39.1205 18.8399C39.7549 18.3108 40.3116 17.4339 40.7918 16.2132Z" fill="#232F3E"/>
<path fill-rule="evenodd" clip-rule="evenodd" d="M18.8501 4.04731C18.5912 3.18907 18.2224 2.45877 17.7408 1.85774C17.2606 1.25671 16.6731 0.795603 15.9783 0.477095C15.2849 0.158587 14.5096 0 13.6538 0C12.8531 0 12.0684 0.149259 11.3038 0.450442C10.5379 0.751624 9.81631 1.19407 9.13894 1.77778L9.00615 0.927537C8.9525 0.57438 8.74728 0.397135 8.39048 0.397135H7.21549C6.86004 0.397135 6.68164 0.57438 6.68164 0.927537V18.7906C6.68164 19.1451 6.86004 19.321 7.21549 19.321H8.79154C9.14833 19.321 9.32538 19.1438 9.32538 18.7906V12.5804C10.4829 13.6239 11.8632 14.1463 13.466 14.1463C14.3379 14.1463 15.1306 13.973 15.8429 13.6292C16.5551 13.284 17.16 12.8016 17.659 12.1819C18.158 11.5636 18.5456 10.8119 18.8206 9.92571C19.0969 9.04082 19.2351 8.04931 19.2351 6.95253C19.2377 5.8744 19.1076 4.90555 18.8501 4.04731ZM12.8531 12.022C11.6405 12.022 10.4655 11.5982 9.32673 10.748V3.34366C10.4481 2.5294 11.6418 2.12294 12.9067 2.12294C15.3291 2.12294 16.5403 3.77811 16.5403 7.08579C16.539 10.3775 15.3104 12.022 12.8531 12.022Z" fill="#232F3E"/>
<path fill-rule="evenodd" clip-rule="evenodd" d="M30.8988 1.04215C30.0967 0.353158 28.8506 0.00799751 27.1592 0.00799751C26.3222 0.00799751 25.4852 0.0839595 24.6482 0.233218C23.8099 0.38381 23.1071 0.582377 22.537 0.830253C22.3237 0.919542 22.1802 1.0115 22.1091 1.10878C22.038 1.20607 22.0018 1.37931 22.0018 1.62586V2.3415C22.0018 2.66001 22.1172 2.81993 22.3492 2.81993C22.4203 2.81993 22.4968 2.8066 22.5773 2.77995C22.6577 2.75329 22.7248 2.73197 22.7771 2.71331C24.1493 2.30685 25.4571 2.10295 26.7045 2.10295C27.7722 2.10295 28.5206 2.29752 28.9485 2.68799C29.3764 3.07713 29.5897 3.74879 29.5897 4.70432V6.45544C28.3436 6.15426 27.2209 6.005 26.223 6.005C24.6563 6.005 23.4102 6.39014 22.4834 7.15909C21.5578 7.92804 21.0938 8.95952 21.0938 10.2509C21.0938 11.4556 21.468 12.4138 22.2164 13.1308C22.9636 13.8477 23.9789 14.2049 25.2612 14.2049C26.0271 14.2049 26.797 14.0543 27.5723 13.7545C28.3476 13.4546 29.0545 13.0282 29.6956 12.4804L29.8298 13.356C29.8834 13.6918 30.0793 13.8597 30.4186 13.8597H31.5668C31.9222 13.8597 32.102 13.6825 32.102 13.3293V4.25388C32.1006 2.8026 31.6996 1.73247 30.8988 1.04215ZM29.5897 10.8639C29.0022 11.3064 28.3879 11.6422 27.7467 11.8727C27.1055 12.1033 26.4912 12.2179 25.9037 12.2179C25.2089 12.2179 24.6751 12.0367 24.3008 11.6742C23.9266 11.3117 23.7402 10.7946 23.7402 10.1216C23.7402 8.58238 24.7462 7.8121 26.7581 7.8121C27.2209 7.8121 27.6971 7.84408 28.1867 7.90538C28.6762 7.96802 29.1444 8.05198 29.5897 8.15726V10.8639Z" fill="#232F3E"/>
</svg>
