<svg width="54" height="23" viewBox="0 0 54 23" fill="none" xmlns="http://www.w3.org/2000/svg">
<path fill-rule="evenodd" clip-rule="evenodd" d="M24.9075 17.2472V10.7765H28.2752C29.6552 10.7765 30.8199 10.318 31.7695 9.41359L31.9974 9.18432C33.7319 7.3119 33.6179 4.395 31.7695 2.66269C30.8453 1.74559 29.5792 1.24883 28.2752 1.2743H22.8691V17.2472H24.9075ZM24.904 8.8148V3.23575H28.3228C29.0573 3.23575 29.7537 3.51598 30.2729 4.02548C31.3745 5.09543 31.3998 6.87869 30.3362 7.98686C29.817 8.53457 29.0826 8.84027 28.3228 8.8148H24.904ZM41.5056 7.17171C40.632 6.36925 39.4419 5.96165 37.9353 5.96165C35.9982 5.96165 34.5423 6.67495 33.5801 8.08882L35.3779 9.22246C36.0362 8.25441 36.9351 7.77038 38.0746 7.77038C38.7962 7.77038 39.4925 8.03787 40.0369 8.52189C40.5687 8.98045 40.8725 9.6428 40.8725 10.3434V10.8147C40.0876 10.3816 39.1001 10.1523 37.8847 10.1523C36.4667 10.1523 35.3272 10.4835 34.479 11.1586C33.6307 11.8337 33.2003 12.7253 33.2003 13.8589C33.1749 14.8907 33.6181 15.8715 34.403 16.5338C35.2006 17.2471 36.2135 17.6038 37.4036 17.6038C38.8089 17.6038 39.923 16.9796 40.7712 15.7313H40.8599V17.2471H42.8096V10.509C42.8096 9.09508 42.3791 7.97418 41.5056 7.17171ZM35.9698 15.2346C35.5519 14.9289 35.2986 14.4322 35.2986 13.8972C35.2986 13.2985 35.5772 12.8017 36.1217 12.4069C36.6789 12.012 37.3753 11.8082 38.1984 11.8082C39.338 11.7955 40.2244 12.0502 40.8575 12.5597C40.8575 13.4259 40.5156 14.1774 39.8445 14.8143C39.2367 15.4257 38.4136 15.7696 37.5526 15.7696C36.9828 15.7823 36.4256 15.5913 35.9698 15.2346ZM47.1911 22.0492L54.0025 6.31829H51.7869L48.6344 14.1646H48.5965L45.368 6.31829H43.1524L47.6216 16.5465L45.0895 22.0492H47.1911Z" fill="#3C4043"/>
<path d="M17.8637 9.37539C17.8637 8.75125 17.813 8.12711 17.7117 7.51571H9.11523V11.044H14.0402C13.8376 12.1776 13.1793 13.1967 12.2171 13.8335V16.1263H15.1543C16.8761 14.5341 17.8637 12.1776 17.8637 9.37539Z" fill="#4285F4"/>
<path d="M9.11532 18.3426C11.5715 18.3426 13.6478 17.5274 15.1544 16.1263L12.2171 13.8335C11.3942 14.394 10.3434 14.7124 9.11532 14.7124C6.73514 14.7124 4.72212 13.0948 4.00047 10.9294H0.974609V13.2986C2.51919 16.3938 5.67166 18.3426 9.11532 18.3426Z" fill="#25D366"/>
<path d="M4.00452 10.9294C3.62465 9.79576 3.62465 8.56021 4.00452 7.41383V5.05739H0.97818C-0.32606 7.64311 -0.32606 10.7001 0.97818 13.2858L4.00452 10.9294Z" fill="#FBBC04"/>
<path d="M9.11532 3.63075C10.4193 3.60528 11.6727 4.10204 12.6096 5.00641L15.2177 2.38248C13.5592 0.828495 11.3815 -0.0249207 9.11532 0.00055435C5.67166 0.00055435 2.51919 1.96214 0.974609 5.05736L4.00047 7.42654C4.72212 5.24842 6.73514 3.63075 9.11532 3.63075Z" fill="#EA4335"/>
</svg>
