<svg width="50" height="16" viewBox="0 0 50 16" fill="none" xmlns="http://www.w3.org/2000/svg">
<mask id="mask0_327_11133" style="mask-type:alpha" maskUnits="userSpaceOnUse" x="0" y="0" width="50" height="16">
<rect width="50" height="16" fill="white"/>
</mask>
<g mask="url(#mask0_327_11133)">
<path fill-rule="evenodd" clip-rule="evenodd" d="M12.2781 15.8754H8.02789L4.84077 3.46302C4.6895 2.89205 4.3683 2.38728 3.89583 2.14938C2.71672 1.55152 1.41742 1.07571 0 0.835742V0.357867H6.84671C7.79165 0.357867 8.50036 1.07571 8.61848 1.90941L10.2721 10.8628L14.5202 0.357867H18.6523L12.2781 15.8754ZM21.0125 15.8754H16.9985L20.3038 0.357867H24.3177L21.0125 15.8754ZM29.5127 4.6567C29.6308 3.82093 30.3395 3.34306 31.1663 3.34306C32.4656 3.22307 33.881 3.46304 35.0621 4.05884L35.7708 0.717847C34.5897 0.239972 33.2904 0 32.1113 0C28.2154 0 25.3806 2.1494 25.3806 5.1325C25.3806 7.40189 27.3886 8.59348 28.806 9.31133C30.3395 10.0271 30.9301 10.505 30.812 11.2208C30.812 12.2944 29.6308 12.7723 28.4517 12.7723C27.0343 12.7723 25.6168 12.4144 24.3196 11.8166L23.6109 15.1596C25.0283 15.7554 26.5618 15.9954 27.9792 15.9954C32.3475 16.1133 35.0621 13.966 35.0621 10.7429C35.0621 6.68405 29.5127 6.44614 29.5127 4.6567V4.6567ZM49.1071 15.8754L45.92 0.357867H42.4967C41.788 0.357867 41.0792 0.835742 40.843 1.55152L34.9412 15.8754H39.0733L39.8981 13.608H44.9751L45.4475 15.8754H49.1071ZM43.0922 4.53673L44.2714 10.385H40.9661L43.0922 4.53673Z" fill="white"/>
</g>
</svg>
