<svg width="27" height="32" viewBox="0 0 27 32" fill="none" xmlns="http://www.w3.org/2000/svg">
<path fill-rule="evenodd" clip-rule="evenodd" d="M7.51715 30.9153L8.05819 27.3929L6.85294 27.3641H1.09766L5.09738 1.37016C5.10984 1.29145 5.15012 1.21838 5.20895 1.1664C5.26807 1.11442 5.34341 1.08591 5.42224 1.08591H15.1265C18.3484 1.08591 20.5717 1.77294 21.7324 3.12917C22.2766 3.76541 22.6232 4.43045 22.791 5.16204C22.9669 5.92986 22.9698 6.84708 22.7982 7.96599L22.7858 8.04738V8.76441L23.33 9.08044C23.7882 9.32965 24.1524 9.6148 24.4318 9.94123C24.8972 10.4854 25.1983 11.1769 25.3255 11.9964C25.4571 12.8393 25.4136 13.8427 25.1983 14.9785C24.9499 16.2849 24.5486 17.4228 24.0064 18.3537C23.5079 19.2115 22.8727 19.9232 22.1184 20.4745C21.3982 20.9984 20.5428 21.3962 19.5754 21.6507C18.638 21.9008 17.5692 22.0271 16.397 22.0271H15.6418C15.1019 22.0271 14.5774 22.2264 14.1656 22.5837C13.7526 22.9484 13.4796 23.4468 13.3959 23.9919L13.3388 24.3091L12.3828 30.5179L12.3396 30.7457C12.328 30.8179 12.3083 30.8539 12.2793 30.8782C12.2535 30.9005 12.2164 30.9153 12.1802 30.9153H7.51715Z" fill="#28356A"/>
<path fill-rule="evenodd" clip-rule="evenodd" d="M23.845 8.13018C23.8163 8.31998 23.7829 8.51394 23.7459 8.71325C22.4661 15.4481 18.0876 17.7747 12.4958 17.7747H9.64858C8.96466 17.7747 8.38827 18.2835 8.28191 18.975L6.4113 31.1369C6.34204 31.591 6.68341 32 7.13027 32H12.1802C12.7781 32 13.2861 31.5548 13.3802 30.9503L13.4298 30.6874L14.3806 24.503L14.4418 24.1638C14.5348 23.5573 15.0439 23.1117 15.6418 23.1117H16.397C21.2896 23.1117 25.1198 21.0759 26.2392 15.184C26.7067 12.7228 26.4647 10.6677 25.2273 9.22236C24.8529 8.78661 24.3883 8.42483 23.845 8.13018Z" fill="#298FC2"/>
<path fill-rule="evenodd" clip-rule="evenodd" d="M22.5077 7.58311C22.3121 7.5246 22.1104 7.47172 21.9035 7.4239C21.6954 7.37727 21.4824 7.33598 21.263 7.29975C20.4954 7.17262 19.6541 7.11232 18.7531 7.11232H11.1469C10.9594 7.11232 10.7815 7.15569 10.6224 7.2341C10.2715 7.40697 10.0109 7.74737 9.94777 8.1641L8.32957 18.6688L8.2832 18.9751C8.38956 18.2836 8.96596 17.7748 9.64987 17.7748H12.4971C18.0889 17.7748 22.4674 15.4469 23.7471 8.71331C23.7854 8.514 23.8176 8.32004 23.8463 8.13024C23.5226 7.9541 23.1719 7.80351 22.7943 7.67519C22.701 7.64341 22.6048 7.61281 22.5077 7.58311Z" fill="#22284F"/>
<path fill-rule="evenodd" clip-rule="evenodd" d="M9.94648 8.16414C10.0097 7.74741 10.2702 7.40701 10.6211 7.23533C10.7814 7.15662 10.9581 7.11325 11.1456 7.11325H18.7518C19.6528 7.11325 20.4941 7.17384 21.2617 7.30097C21.4811 7.33691 21.6941 7.3785 21.9022 7.42513C22.1091 7.47265 22.3108 7.52582 22.5064 7.58404C22.6035 7.61374 22.6997 7.64463 22.7939 7.67523C23.1715 7.80354 23.5224 7.95533 23.8461 8.13028C24.2269 5.64147 23.8429 3.94692 22.5302 2.41247C21.0826 0.722969 18.4705 0 15.1277 0H5.4231C4.74035 0 4.15786 0.508811 4.05238 1.20148L0.0103445 27.4627C-0.0693486 27.9822 0.321582 28.4509 0.832777 28.4509H6.82396L9.94648 8.16414Z" fill="#28356A"/>
</svg>
