<svg width="32" height="32" viewBox="0 0 32 32" fill="none" xmlns="http://www.w3.org/2000/svg">
<mask id="mask0_327_742" style="mask-type:alpha" maskUnits="userSpaceOnUse" x="0" y="0" width="32" height="32">
<rect y="-3.05176e-05" width="32" height="32" fill="white"/>
</mask>
<g mask="url(#mask0_327_742)">
<path d="M27.8858 10.9088C27.7002 11.0528 24.4234 12.8992 24.4234 17.0048C24.4234 21.7536 28.593 23.4336 28.7178 23.4752C28.6986 23.5776 28.0554 25.776 26.5194 28.016C25.1498 29.9872 23.7194 31.9552 21.5434 31.9552C19.3674 31.9552 18.8074 30.6912 16.2954 30.6912C13.8474 30.6912 12.977 31.9968 10.9866 31.9968C8.99623 31.9968 7.60743 30.1728 6.01063 27.9328C4.16103 25.3024 2.66663 21.216 2.66663 17.3376C2.66663 11.1168 6.71143 7.81757 10.6922 7.81757C12.8074 7.81757 14.5706 9.20637 15.8986 9.20637C17.1626 9.20637 19.1338 7.73437 21.5402 7.73437C22.4522 7.73437 25.729 7.81757 27.8858 10.9088ZM20.3978 5.10077C21.393 3.91997 22.097 2.28157 22.097 0.64317C22.097 0.41597 22.0778 0.185569 22.0362 -3.05176e-05C20.417 0.0607695 18.4906 1.07837 17.329 2.42557C16.417 3.46237 15.5658 5.10077 15.5658 6.76157C15.5658 7.01117 15.6074 7.26077 15.6266 7.34077C15.729 7.35997 15.8954 7.38237 16.0618 7.38237C17.5146 7.38237 19.3418 6.40957 20.3978 5.10077Z" fill="#12151C"/>
</g>
</svg>
