<svg width="24" height="24" viewBox="0 0 24 24" fill="none" xmlns="http://www.w3.org/2000/svg">
<mask id="mask0_327_11155" style="mask-type:alpha" maskUnits="userSpaceOnUse" x="0" y="0" width="24" height="24">
<rect width="24" height="24" fill="white"/>
</mask>
<g mask="url(#mask0_327_11155)">
<path d="M12 19H6C5.20435 19 4.44129 18.6839 3.87868 18.1213C3.31607 17.5587 3 16.7956 3 16V8C3 7.20435 3.31607 6.44129 3.87868 5.87868C4.44129 5.31607 5.20435 5 6 5H18C18.7956 5 19.5587 5.31607 20.1213 5.87868C20.6839 6.44129 21 7.20435 21 8V12.5" stroke="#12151C" stroke-width="2" stroke-linecap="round" stroke-linejoin="round"/>
<path d="M3 10H21" stroke="#12151C" stroke-width="2" stroke-linecap="round" stroke-linejoin="round"/>
<path d="M16 19H22" stroke="#12151C" stroke-width="2" stroke-linecap="round" stroke-linejoin="round"/>
<path d="M19 16L22 19L19 22" stroke="#12151C" stroke-width="2" stroke-linecap="round" stroke-linejoin="round"/>
<path d="M7.00586 15H7.01086" stroke="#12151C" stroke-width="2" stroke-linecap="round" stroke-linejoin="round"/>
<path d="M11 15H13" stroke="#12151C" stroke-width="2" stroke-linecap="round" stroke-linejoin="round"/>
</g>
</svg>
