<svg width="24" height="24" viewBox="0 0 24 24" fill="none" xmlns="http://www.w3.org/2000/svg">
<mask id="mask0_327_6025" style="mask-type:alpha" maskUnits="userSpaceOnUse" x="0" y="0" width="24" height="24">
<rect width="24" height="24" fill="white"/>
</mask>
<g mask="url(#mask0_327_6025)">
<path d="M6.33032 8H17.6693C17.9577 7.99997 18.2426 8.06229 18.5047 8.1827C18.7667 8.30311 18.9996 8.47876 19.1874 8.6976C19.3752 8.91645 19.5134 9.17331 19.5926 9.45059C19.6718 9.72786 19.6901 10.019 19.6463 10.304L18.3913 18.456C18.2824 19.1644 17.9234 19.8105 17.3793 20.2771C16.8352 20.7438 16.1421 21.0002 15.4253 21H8.57332C7.85672 21 7.1638 20.7434 6.61995 20.2768C6.0761 19.8102 5.71724 19.1643 5.60832 18.456L4.35332 10.304C4.30949 10.019 4.32781 9.72786 4.40702 9.45059C4.48624 9.17331 4.62448 8.91645 4.81226 8.6976C5.00005 8.47876 5.23293 8.30311 5.49496 8.1827C5.75698 8.06229 6.04195 7.99997 6.33032 8Z" stroke="#12151C" stroke-width="2" stroke-linecap="round" stroke-linejoin="round"/>
<path d="M9 11V6C9 5.20435 9.31607 4.44129 9.87868 3.87868C10.4413 3.31607 11.2044 3 12 3C12.7956 3 13.5587 3.31607 14.1213 3.87868C14.6839 4.44129 15 5.20435 15 6V11" stroke="#12151C" stroke-width="2" stroke-linecap="round" stroke-linejoin="round"/>
</g>
</svg>
