<svg width="18" height="18" viewBox="0 0 18 18" fill="none" xmlns="http://www.w3.org/2000/svg">
<mask id="mask0_327_9711" style="mask-type:alpha" maskUnits="userSpaceOnUse" x="0" y="0" width="18" height="18">
<rect width="18" height="18" fill="white"/>
</mask>
<g mask="url(#mask0_327_9711)">
<path d="M3 5H15" stroke="#FC342F" stroke-width="2" stroke-linecap="round" stroke-linejoin="round"/>
<path d="M7.5 8V12.5" stroke="#FC342F" stroke-width="2" stroke-linecap="round" stroke-linejoin="round"/>
<path d="M10.5 8V12.5" stroke="#FC342F" stroke-width="2" stroke-linecap="round" stroke-linejoin="round"/>
<path d="M3.75 5L4.5 14C4.5 14.3978 4.65804 14.7794 4.93934 15.0607C5.22064 15.342 5.60218 15.5 6 15.5H12C12.3978 15.5 12.7794 15.342 13.0607 15.0607C13.342 14.7794 13.5 14.3978 13.5 14L14.25 5" stroke="#FC342F" stroke-width="2" stroke-linecap="round" stroke-linejoin="round"/>
<path d="M6.75 5V2.75C6.75 2.55109 6.82902 2.36032 6.96967 2.21967C7.11032 2.07902 7.30109 2 7.5 2H10.5C10.6989 2 10.8897 2.07902 11.0303 2.21967C11.171 2.36032 11.25 2.55109 11.25 2.75V5" stroke="#FC342F" stroke-width="2" stroke-linecap="round" stroke-linejoin="round"/>
</g>
</svg>
