<svg width="24" height="24" viewBox="0 0 24 24" fill="none" xmlns="http://www.w3.org/2000/svg">
<mask id="mask0_327_11182" style="mask-type:alpha" maskUnits="userSpaceOnUse" x="0" y="0" width="24" height="24">
<rect width="24" height="24" fill="white"/>
</mask>
<g mask="url(#mask0_327_11182)">
<path d="M10.5856 10.587C10.2105 10.9622 9.99991 11.4709 10 12.0014C10.0001 12.5318 10.2109 13.0405 10.5861 13.4155C10.9612 13.7905 11.47 14.0012 12.0004 14.0011C12.5309 14.001 13.0395 13.7902 13.4146 13.415" stroke="#12151C" stroke-width="2" stroke-linecap="round" stroke-linejoin="round"/>
<path d="M16.681 16.673C15.2782 17.5507 13.6547 18.0109 12 18C8.4 18 5.4 16 3 12C4.272 9.88 5.712 8.322 7.32 7.326M10.18 6.18C10.779 6.05873 11.3888 5.99842 12 6C15.6 6 18.6 8 21 12C20.334 13.11 19.621 14.067 18.862 14.87" stroke="#12151C" stroke-width="2" stroke-linecap="round" stroke-linejoin="round"/>
<path d="M3 3L21 21" stroke="#12151C" stroke-width="2" stroke-linecap="round" stroke-linejoin="round"/>
</g>
</svg>
