<svg width="32" height="32" viewBox="0 0 32 32" fill="none" xmlns="http://www.w3.org/2000/svg">
<mask id="mask0_327_745" style="mask-type:alpha" maskUnits="userSpaceOnUse" x="0" y="0" width="32" height="32">
<rect y="-3.05176e-05" width="32" height="32" fill="white"/>
</mask>
<g mask="url(#mask0_327_745)">
<path d="M16 32C24.8366 32 32 24.8365 32 16C32 7.16341 24.8366 -3.05176e-05 16 -3.05176e-05C7.16344 -3.05176e-05 0 7.16341 0 16C0 24.8365 7.16344 32 16 32Z" fill="#1977F3"/>
<path d="M22.2281 20.626L22.9369 16H18.4998V12.9984C18.4998 11.7339 19.1185 10.4986 21.1076 10.4986H23.1259V6.56108C23.1259 6.56108 21.2943 6.24832 19.5438 6.24832C15.8897 6.24832 13.5002 8.46236 13.5002 12.4742V16H9.43665V20.626H13.5002V31.8065C14.3147 31.9347 15.1495 32 16 32C16.8505 32 17.6853 31.9325 18.4998 31.8065V20.626H22.2281Z" fill="white"/>
</g>
</svg>
