<svg width="32" height="32" viewBox="0 0 32 32" fill="none" xmlns="http://www.w3.org/2000/svg">
<mask id="mask0_327_735" style="mask-type:alpha" maskUnits="userSpaceOnUse" x="0" y="0" width="32" height="32">
<rect y="-3.05176e-05" width="32" height="32" fill="white"/>
</mask>
<g mask="url(#mask0_327_735)">
<path d="M31.32 16.36C31.32 15.3066 31.2267 14.3066 31.0667 13.3333H16V19.3466H24.6267C24.24 21.32 23.1067 22.9866 21.4267 24.12V28.12H26.5733C29.5867 25.3333 31.32 21.2266 31.32 16.36Z" fill="#4285F4"/>
<path d="M16.0001 32C20.3201 32 23.9334 30.56 26.5734 28.12L21.4268 24.12C19.9868 25.08 18.1601 25.6666 16.0001 25.6666C11.8268 25.6666 8.29343 22.8533 7.02676 19.0533H1.72009V23.1733C4.34676 28.4 9.74676 32 16.0001 32Z" fill="#34A853"/>
<path d="M7.02667 19.0533C6.69333 18.0933 6.52 17.0666 6.52 16C6.52 14.9333 6.70667 13.9066 7.02667 12.9466V8.82664H1.72C0.626665 10.9866 0 13.4133 0 16C0 18.5866 0.626665 21.0133 1.72 23.1733L7.02667 19.0533Z" fill="#FBBC05"/>
<path d="M16.0001 6.3333C18.3601 6.3333 20.4668 7.14664 22.1334 8.73331L26.6934 4.1733C23.9334 1.58664 20.3201 -3.05176e-05 16.0001 -3.05176e-05C9.74676 -3.05176e-05 4.34676 3.59997 1.72009 8.82664L7.02676 12.9466C8.29343 9.14664 11.8268 6.3333 16.0001 6.3333Z" fill="#EA4335"/>
</g>
</svg>
