<svg width="24" height="24" viewBox="0 0 24 24" fill="none" xmlns="http://www.w3.org/2000/svg">
<mask id="mask0_327_10657" style="mask-type:alpha" maskUnits="userSpaceOnUse" x="0" y="0" width="24" height="24">
<rect width="24" height="24" fill="white"/>
</mask>
<g mask="url(#mask0_327_10657)">
<path d="M4 19.3284H8L18.5 8.82843C18.7626 8.56578 18.971 8.25398 19.1131 7.91082C19.2553 7.56766 19.3284 7.19986 19.3284 6.82843C19.3284 6.45699 19.2553 6.0892 19.1131 5.74604C18.971 5.40287 18.7626 5.09107 18.5 4.82843C18.2374 4.56578 17.9256 4.35744 17.5824 4.2153C17.2392 4.07316 16.8714 4 16.5 4C16.1286 4 15.7608 4.07316 15.4176 4.2153C15.0744 4.35744 14.7626 4.56578 14.5 4.82843L4 15.3284V19.3284Z" stroke="#12151C" stroke-width="2" stroke-linecap="round" stroke-linejoin="round"/>
<path d="M13.5 5.82843L17.5 9.82843" stroke="#12151C" stroke-width="2" stroke-linecap="round" stroke-linejoin="round"/>
</g>
</svg>
