<svg width="20" height="20" viewBox="0 0 20 20" fill="none" xmlns="http://www.w3.org/2000/svg">
<mask id="mask0_327_1909" style="mask-type:alpha" maskUnits="userSpaceOnUse" x="0" y="0" width="20" height="20">
<rect x="0.5" y="0.5" width="19" height="19" fill="#F5F5F5" stroke="#464849"/>
</mask>
<g mask="url(#mask0_327_1909)">
<path d="M16.6706 10.5051L10.0074 17L3.34419 10.5051C2.90469 10.0842 2.5585 9.5783 2.32743 9.01925C2.09635 8.46019 1.98539 7.8601 2.00154 7.25676C2.01769 6.65343 2.16059 6.05992 2.42125 5.51361C2.68191 4.9673 3.05468 4.48002 3.51609 4.08247C3.97749 3.68491 4.51754 3.38568 5.10222 3.20363C5.6869 3.02158 6.30355 2.96065 6.91333 3.02467C7.52312 3.08868 8.11283 3.27627 8.64533 3.57561C9.17783 3.87496 9.64159 4.27957 10.0074 4.76397C10.3748 4.28309 10.8391 3.88201 11.3712 3.58584C11.9034 3.28968 12.4919 3.1048 13.1 3.04278C13.708 2.98076 14.3226 3.04294 14.9051 3.22541C15.4876 3.40789 16.0256 3.70674 16.4854 4.10326C16.9452 4.49978 17.3169 4.98544 17.5772 5.52983C17.8375 6.07423 17.9808 6.66564 17.9982 7.26706C18.0156 7.86848 17.9067 8.46695 17.6782 9.02503C17.4498 9.58311 17.1068 10.0888 16.6706 10.5104" fill="#F5F5F5"/>
<path d="M16.6706 10.5051L10.0074 17L3.34419 10.5051C2.90469 10.0842 2.5585 9.5783 2.32743 9.01925C2.09635 8.46019 1.98539 7.8601 2.00154 7.25676C2.01769 6.65343 2.16059 6.05992 2.42125 5.51361C2.68191 4.9673 3.05468 4.48002 3.51609 4.08247C3.97749 3.68491 4.51754 3.38568 5.10222 3.20363C5.6869 3.02158 6.30355 2.96065 6.91333 3.02467C7.52312 3.08868 8.11283 3.27627 8.64533 3.57561C9.17783 3.87496 9.64159 4.27957 10.0074 4.76397C10.3748 4.28309 10.8391 3.88201 11.3712 3.58584C11.9034 3.28968 12.4919 3.1048 13.1 3.04278C13.708 2.98076 14.3226 3.04294 14.9051 3.22541C15.4876 3.40789 16.0256 3.70674 16.4854 4.10326C16.9452 4.49978 17.3169 4.98544 17.5772 5.52983C17.8375 6.07423 17.9808 6.66564 17.9982 7.26706C18.0156 7.86848 17.9067 8.46695 17.6782 9.02503C17.4498 9.58311 17.1068 10.0888 16.6706 10.5104" stroke="#464849" stroke-width="2" stroke-linecap="round" stroke-linejoin="round"/>
</g>
</svg>
