<svg width="375" height="15" viewBox="0 0 375 15" fill="none" xmlns="http://www.w3.org/2000/svg">
<path fill-rule="evenodd" clip-rule="evenodd" d="M22.2639 0H0V8.70239C6.96329 3.15106 14.415 0 22.2639 0ZM97.2639 0C89.415 0 81.9633 3.15106 75 8.70239C69.4633 13.1165 64.415 14.9481 59.7639 14.9481C55.1129 14.9481 50.0645 13.1165 44.5278 8.70239C37.5645 3.15106 30.1129 0 22.2639 0H97.2639ZM172.264 0C164.415 0 156.963 3.15106 150 8.70239C144.463 13.1165 139.415 14.9481 134.764 14.9481C130.113 14.9481 125.065 13.1165 119.528 8.70239C112.565 3.15106 105.113 0 97.2639 0H172.264ZM247.264 0C239.415 0 231.963 3.15106 225 8.70239C219.463 13.1165 214.415 14.9481 209.764 14.9481C205.113 14.9481 200.065 13.1165 194.528 8.70239C187.565 3.15106 180.113 0 172.264 0H247.264ZM322.264 0C314.415 0 306.963 3.15106 300 8.70239C294.463 13.1165 289.415 14.9481 284.764 14.9481C280.113 14.9481 275.065 13.1165 269.528 8.70239C262.565 3.15106 255.113 0 247.264 0H322.264ZM375 8.70239C369.463 13.1165 364.415 14.9481 359.764 14.9481C355.113 14.9481 350.065 13.1165 344.528 8.70239C337.565 3.15106 330.113 0 322.264 0H375V8.70239Z" fill="#FBF2E9"/>
</svg>
