<svg width="32" height="32" viewBox="0 0 32 32" fill="none" xmlns="http://www.w3.org/2000/svg">
<mask id="mask0_327_1425" style="mask-type:alpha" maskUnits="userSpaceOnUse" x="0" y="0" width="32" height="32">
<rect width="32" height="32" fill="white"/>
</mask>
<g mask="url(#mask0_327_1425)">
<mask id="mask1_327_1425" style="mask-type:alpha" maskUnits="userSpaceOnUse" x="0" y="0" width="32" height="32">
<circle cx="16" cy="16" r="16" fill="white"/>
</mask>
<g mask="url(#mask1_327_1425)">
<circle cx="16" cy="16" r="16" fill="#F93939"/>
<path fill-rule="evenodd" clip-rule="evenodd" d="M-4.26611 0H10.6672V32H-4.26611V0Z" fill="#249F58"/>
<path d="M10.6674 21.3334C14.202 21.3334 17.0674 18.468 17.0674 14.9334C17.0674 11.3988 14.202 8.53338 10.6674 8.53338C7.13275 8.53338 4.26737 11.3988 4.26737 14.9334C4.26737 18.468 7.13275 21.3334 10.6674 21.3334Z" fill="#FFDA2C"/>
<path fill-rule="evenodd" clip-rule="evenodd" d="M14.9339 17.0666V10.6666H6.40055V17.0666C6.40055 18.2442 8.30989 19.1999 10.6672 19.1999C13.0246 19.1999 14.9339 18.2442 14.9339 17.0666Z" fill="#F93939"/>
<path fill-rule="evenodd" clip-rule="evenodd" d="M8.53374 12.8H12.8004V17.0667H8.53374V12.8Z" fill="white"/>
<path fill-rule="evenodd" clip-rule="evenodd" d="M8.53374 12.8H10.6671V14.9333H8.53374V12.8ZM10.6671 14.9333H12.8004V17.0667H10.6671V14.9333Z" fill="#1A47B8"/>
</g>
</g>
</svg>
