<svg width="32" height="32" viewBox="0 0 32 32" fill="none" xmlns="http://www.w3.org/2000/svg">
<mask id="mask0_327_1441" style="mask-type:alpha" maskUnits="userSpaceOnUse" x="0" y="0" width="32" height="32">
<rect width="32" height="32" fill="white"/>
</mask>
<g mask="url(#mask0_327_1441)">
<mask id="mask1_327_1441" style="mask-type:alpha" maskUnits="userSpaceOnUse" x="0" y="0" width="32" height="32">
<circle cx="16" cy="16" r="16" fill="white"/>
</mask>
<g mask="url(#mask1_327_1441)">
<circle cx="16" cy="16" r="16" fill="white"/>
<path d="M40.5333 0H4.26667C1.91025 0 0 1.91025 0 4.26667V27.7333C0 30.0897 1.91025 32 4.26667 32H40.5333C42.8898 32 44.8 30.0897 44.8 27.7333V4.26667C44.8 1.91025 42.8898 0 40.5333 0Z" fill="#F93939"/>
<path fill-rule="evenodd" clip-rule="evenodd" d="M5.31463e-05 8.53338H44.8001V23.4667H5.31463e-05V8.53338Z" fill="#FFDA2C"/>
<path fill-rule="evenodd" clip-rule="evenodd" d="M19.2001 13.2737V18.6497C19.2001 20.143 17.7666 21.3377 16.0002 21.3377H11.7335C9.97135 21.3334 8.53348 20.1323 8.53348 18.6454V13.2694C8.53348 12.0491 9.48922 11.0294 10.8033 10.6987C11.2001 9.5894 12.4204 10.5835 13.8668 10.5835C15.3217 10.5835 16.5335 9.5958 16.9303 10.7009C18.2402 11.0401 19.2001 12.0619 19.2001 13.2737Z" fill="#D4AF2C"/>
<path fill-rule="evenodd" clip-rule="evenodd" d="M19.2 14.9334H21.3333V21.3334H19.2V14.9334ZM6.39998 14.9334H8.53331V21.3334H6.39998V14.9334Z" fill="#CBCBCB"/>
<path fill-rule="evenodd" clip-rule="evenodd" d="M19.2 19.2H21.3333V21.3334H19.2V19.2ZM6.39998 19.2H8.53331V21.3334H6.39998V19.2Z" fill="#1A47B8"/>
<path fill-rule="evenodd" clip-rule="evenodd" d="M19.2 12.8H21.3333V14.9334H19.2V12.8ZM6.39998 12.8H8.53331V14.9334H6.39998V12.8Z" fill="#D4AF2C"/>
<path fill-rule="evenodd" clip-rule="evenodd" d="M10.6667 12.8H12.8V16H10.6667V12.8ZM14.9333 17.0667H17.0667V20.2667H14.9333V17.0667Z" fill="#AF010D"/>
<path fill-rule="evenodd" clip-rule="evenodd" d="M14.9334 12.8H17.0667V16H14.9334V12.8Z" fill="#AE6A3E"/>
<path fill-rule="evenodd" clip-rule="evenodd" d="M10.6667 17.0667H12.8V20.2667H10.6667V17.0667Z" fill="#FFDA2C"/>
<path fill-rule="evenodd" clip-rule="evenodd" d="M12.8 12.8L10.6667 10.6667H17.0667L14.9334 12.8H12.8Z" fill="#AF010D"/>
<path fill-rule="evenodd" clip-rule="evenodd" d="M12.7999 8.53338H14.9332V10.6667H12.7999V8.53338Z" fill="#D4AF2C"/>
</g>
</g>
</svg>
