<svg width="32" height="32" viewBox="0 0 32 32" fill="none" xmlns="http://www.w3.org/2000/svg">
<mask id="mask0_327_1377" style="mask-type:alpha" maskUnits="userSpaceOnUse" x="0" y="0" width="32" height="32">
<rect width="32" height="32" fill="white"/>
</mask>
<g mask="url(#mask0_327_1377)">
<mask id="mask1_327_1377" style="mask-type:alpha" maskUnits="userSpaceOnUse" x="0" y="0" width="32" height="32">
<circle cx="16" cy="16" r="16" fill="white"/>
</mask>
<g mask="url(#mask1_327_1377)">
<circle cx="16" cy="16" r="16" fill="white"/>
<path fill-rule="evenodd" clip-rule="evenodd" d="M0.000488281 0H19.2005V14.9333H0.000488281V0Z" fill="#1A47B8"/>
<path fill-rule="evenodd" clip-rule="evenodd" d="M19.2005 0L19.2005 2.13333H44.8005V0H19.2005ZM19.2005 4.26667V6.4H44.8005V4.26667H19.2005ZM19.2005 8.53333V10.6667H44.8005V8.53333H19.2005ZM19.2005 12.8L19.2005 14.9333H44.8005V12.8H19.2005ZM0.000488281 17.0667V19.2H44.8005V17.0667H0.000488281ZM0.000488281 21.3333V23.4667H44.8005V21.3333H0.000488281ZM0.000488281 25.6V27.7333H44.8005V25.6H0.000488281ZM0.000488281 29.8667V32H44.8005V29.8667H0.000488281Z" fill="#F93939"/>
<path fill-rule="evenodd" clip-rule="evenodd" d="M2.13367 2.13329V4.26662H4.26701V2.13329H2.13367ZM6.40034 2.13329V4.26662H8.53367V2.13329H6.40034ZM10.667 2.13329V4.26662H12.8003V2.13329H10.667ZM14.9337 2.13329V4.26662H17.067V2.13329H14.9337ZM12.8003 4.26662V6.39996H14.9337V4.26662H12.8003ZM8.53367 4.26662V6.39996H10.667V4.26662H8.53367ZM4.26701 4.26662V6.39996H6.40034V4.26662H4.26701ZM2.13367 6.39996V8.53329H4.26701V6.39996H2.13367ZM6.40034 6.39996V8.53329H8.53367V6.39996H6.40034ZM10.667 6.39996V8.53329H12.8003V6.39996H10.667ZM14.9337 6.39996V8.53329H17.067V6.39996H14.9337ZM2.13367 10.6666V12.8H4.26701V10.6666H2.13367ZM6.40034 10.6666V12.8H8.53367V10.6666H6.40034ZM10.667 10.6666V12.8H12.8003V10.6666H10.667ZM14.9337 10.6666V12.8H17.067V10.6666H14.9337ZM12.8003 8.53329V10.6666H14.9337V8.53329H12.8003ZM8.53367 8.53329V10.6666H10.667V8.53329H8.53367ZM4.26701 8.53329V10.6666H6.40034V8.53329H4.26701Z" fill="white"/>
</g>
</g>
</svg>
