<svg width="32" height="32" viewBox="0 0 32 32" fill="none" xmlns="http://www.w3.org/2000/svg">
<mask id="mask0_327_1409" style="mask-type:alpha" maskUnits="userSpaceOnUse" x="0" y="0" width="32" height="32">
<rect width="32" height="32" fill="white"/>
</mask>
<g mask="url(#mask0_327_1409)">
<mask id="mask1_327_1409" style="mask-type:alpha" maskUnits="userSpaceOnUse" x="0" y="0" width="32" height="32">
<circle cx="16" cy="16" r="16" fill="white"/>
</mask>
<g mask="url(#mask1_327_1409)">
<circle cx="16" cy="16" r="16" fill="white"/>
<path fill-rule="evenodd" clip-rule="evenodd" d="M16 21.3333C18.944 21.3333 21.3333 18.944 21.3333 16C21.3333 13.056 18.944 10.6667 16 10.6667C13.056 10.6667 10.6666 13.056 10.6666 16C10.6666 18.944 13.056 21.3333 16 21.3333ZM16 19.2C17.7664 19.2 19.2 17.7664 19.2 16C19.2 14.2336 17.7664 12.8 16 12.8C14.2336 12.8 12.8 14.2336 12.8 16C12.8 17.7664 14.2336 19.2 16 19.2Z" fill="#1A47B8"/>
<path d="M16 17.0667C16.5891 17.0667 17.0667 16.5891 17.0667 16C17.0667 15.4109 16.5891 14.9334 16 14.9334C15.4109 14.9334 14.9333 15.4109 14.9333 16C14.9333 16.5891 15.4109 17.0667 16 17.0667Z" fill="#1A47B8"/>
<path fill-rule="evenodd" clip-rule="evenodd" d="M-6.3999 21.3333H38.4001V32H-6.3999V21.3333Z" fill="#249F58"/>
<path fill-rule="evenodd" clip-rule="evenodd" d="M-6.3999 0H38.4001V10.6667H-6.3999V0Z" fill="#FF6C2D"/>
</g>
</g>
</svg>
